<svg xmlns="http://www.w3.org/2000/svg" viewBox="0 0 60 60"><path d="M11.5 40.3c3.5 2.5 7.6 3.8 11.9 3.8 4.3 0 8.4-1.4 11.8-3.7 0 0 .1 0 .1-.1.9-.7 1.8-1.4 2.7-2.3 8-8 8-21.2 0-29.2-3.8-3.8-9.1-6-14.6-6S12.8 5 8.8 8.8c-3.8 3.8-6 9.1-6 14.6C2.8 29 5 34.1 8.8 38c.9.8 1.7 1.6 2.7 2.3zm1.6-1.1c.1-1.9 1.7-3.5 3.7-3.5h2.4l1.6 1.6c.1.1.1.1.2.1h.1c.1 0 .2.1.3.1.1 0 .2 0 .3-.1h.1l1.5-.7 1.5.7h.1c.1 0 .2.1.3.1.1 0 .2 0 .3-.1h.1c.1 0 .2-.1.2-.1l1.6-1.6H30c1.9 0 3.6 1.6 3.7 3.5-3.1 2-6.6 3.1-10.3 3.1-3.7-.1-7.2-1.2-10.3-3.1zM20.6 14c.6 0 .9-.5.9-.9v-2.5c1.2-.3 2.5-.3 3.7 0v2.5c0 .6.5.9.9.9.5 0 .9-.5.9-.9v-.8c2 1.1 3.4 3.2 3.6 5.5H16c.3-2.4 1.7-4.4 3.7-5.5v.9c0 .5.5.8.9.8zm-5.5 6.6v-.9H32v.9H15.1zm.9 1.9h15v1.9c0 4.2-3.4 7.5-7.5 7.5S16 28.5 16 24.4v-1.9zm7.4 11.2c1 0 1.9-.1 2.8-.5v1l-1.1 1.1-1.2-.7h-.7-.1l-1.2.7-1.1-1.1v-1c.7.4 1.6.5 2.6.5zM10.2 10.2c3.5-3.5 8.3-5.5 13.2-5.5 5 0 9.7 2 13.2 5.5 7.4 7.4 7.4 19.2 0 26.5-.5.5-.8.8-1.2 1.1-.7-2.4-2.8-4.1-5.4-4.1h-1.9v-1.2c2.8-1.6 4.6-4.6 4.6-8.2v-1.9c.6 0 .9-.5.9-.9v-2.8c0-.6-.5-.9-.9-.9h-.1c-.3-3.4-2.5-6.3-5.5-7.7v-.4-.2c-.1-.2-.3-.3-.6-.5-2-.7-4.2-.7-6.2 0h-.1s-.1 0-.1.1l-.1.1-.1.1v.8c-3.1 1.4-5.2 4.3-5.5 7.7-.6 0-.9.5-.9.9v2.7c0 .6.5.9.9.9v1.9c0 3.4 1.9 6.5 4.6 8v1.2h-2c-2.6 0-4.8 1.7-5.4 4.1-.5-.3-.9-.8-1.2-1.1-3.5-3.5-5.5-8.3-5.5-13.2-.1-4.9 1.8-9.5 5.3-13z" fill="#84bc30"/><path d="M23.4 46.9c5.3 0 10.3-1.8 14.5-5l3.8 4-.7.6c-.3.3-.3.9 0 1.4l11 10.7c.9.9 2 1.4 3.3 1.4s2.4-.5 3.3-1.4c1-.9 1.5-2 1.5-3.3s-.5-2.4-1.4-3.3L47.8 41.2c-.3-.3-.9-.3-1.4 0l-.7.7-3.8-4c7.2-9.2 6.6-22.5-1.8-31C35.5 2.5 29.7 0 23.4 0 17.2 0 11.3 2.5 6.9 6.9S0 17.2 0 23.4C0 29.7 2.5 35.5 6.9 40c4.4 4.4 10.3 6.9 16.5 6.9zm33.9 10.4c-1 1-2.9 1-4 0L43.1 47.1l.7-.7 2.6-2.6.7-.7 10.2 10.2c.6.6.8 1.2.8 2 0 .7-.3 1.4-.8 2zM44.5 43.1l-1.4 1.4-3.8-3.8.7-.7.7-.7 3.8 3.8zM8.2 8.2c4.1-4.1 9.5-6.3 15.3-6.3 5.8 0 11.2 2.3 15.3 6.3 8.4 8.4 8.4 22.1 0 30.5-4.1 4.1-9.5 6.3-15.3 6.3-5.8 0-11.2-2.3-15.3-6.3-4.1-4.1-6.3-9.5-6.3-15.3 0-5.7 2.2-11.2 6.3-15.2z" fill="#84bc30"/><path d="M23.4 38.5c-.6 0-.9.5-.9.9 0 .5.5.9.9.9.6 0 .9-.5.9-.9 0-.5-.3-.9-.9-.9z" fill="#84bc30"/></svg>