<svg xmlns="http://www.w3.org/2000/svg" xmlns:xlink="http://www.w3.org/1999/xlink" viewBox="0 0 57.1 53"><defs><path id="a" d="M0 0h57v53H0z"/></defs><clipPath id="b"><use xlink:href="#a" overflow="visible"/></clipPath><g clip-path="url(#b)" fill="#84bc30"><path d="M28.9 35.9c.4-.4.4-1.1 0-1.5-.4-.4-1-.4-1.4 0-.4.4-.4 1.1 0 1.5.4.5 1.1.5 1.4 0zM24.1 11.4c0 6.3 5 11.4 11.2 11.4s11.2-5.1 11.2-11.4c0-6.3-5-11.4-11.2-11.4S24.1 5.1 24.1 11.4zm20.4 0c0 5.1-4.1 9.3-9.2 9.3s-9.2-4.2-9.2-9.3c0-5.1 4.1-9.3 9.2-9.3s9.2 4.1 9.2 9.3z"/><path d="M16.7 52.7c.4.4 1 .4 1.4 0l4.9-4.9c.8-.9 1.1-2.1.7-3.2l1.1-1c.6-.6 1.3-.9 2.1-.9h13.5c2.4 0 4.7-.9 6.4-2.6.1-.1-.5.7 9.2-11.2 1.5-1.7 1.2-4.4-.5-5.8-1.7-1.5-4.3-1.3-5.7.5l-6 6.3c-.8-.9-1.9-1.5-3.2-1.5H29.4c-1.6-.7-3.3-1-5.1-1-4.9 0-9.2 2.3-11.5 6.6-1-.2-2 .1-2.7.9l-4.8 4.9c-.4.4-.4 1.1 0 1.5l11.4 11.4zm7.6-23.5c1.6 0 3.1.3 4.5.9.1.1.3.1.4.1h11.6c1.1 0 2 .9 2 2.1 0 1.1-.9 2.1-2 2.1h-8.3c-.6 0-1 .5-1 1 0 .6.5 1 1 1h8.3c2.2 0 4.1-1.9 4.1-4.1v-.5c5.8-6.1 6.6-6.9 6.7-7 .7-.9 2-1 2.9-.2.9.7 1 2 .2 2.9l-9.1 11.1c-1.3 1.3-3.1 2-4.9 2H27c-1.3 0-2.6.5-3.5 1.5l-.9.8-8-8.1c1.9-3.6 5.4-5.6 9.7-5.6zm-12.7 6.9c.3-.3.9-.4 1.3-.1.2.1-.3-.4 8.8 8.9.4.4.4 1.1 0 1.5l-4.2 4.2-10-10.2 4.1-4.3zM34.1 5.2v1.2c-1.2.4-2 1.6-2 2.9 0 1.7 1.4 3.1 3.1 3.1.6 0 1 .5 1 1 0 .6-.5 1-1 1-.4 0-.9-.3-1.3-.8-.4-.4-1-.5-1.4-.1-.4.4-.5 1-.1 1.5.5.7 1.2 1.1 1.9 1.3v1.2c0 .6.5 1 1 1 .6 0 1-.5 1-1v-1.2c1.2-.4 2-1.6 2-2.9 0-1.7-1.4-3.1-3.1-3.1-.6 0-1-.5-1-1 0-.6.5-1 1-1 .4 0 .7.2 1.1.5.4.4 1 .4 1.4 0 .4-.4.4-1.1 0-1.5-.5-.5-1-.8-1.5-1V5.2c0-.6-.5-1-1-1-.6-.1-1.1.4-1.1 1z"/></g></svg>