<svg xmlns="http://www.w3.org/2000/svg" xmlns:xlink="http://www.w3.org/1999/xlink" viewBox="0 0 52 52"><defs><path id="a" d="M0 0h52v52H0z"/></defs><clipPath id="b"><use xlink:href="#a" overflow="visible"/></clipPath><g clip-path="url(#b)" fill="#84bc30"><path d="M39 .4H.9c-.5 0-.9.4-.9.9v49.4c0 .5.4.9.9.9H39c.5 0 .9-.4.9-.9V1.3c0-.5-.4-.9-.9-.9zm-.9 49.4H1.7V2.2h36.4v47.6z"/><path d="M24.3 9.1h-8.7c-.5 0-.9.4-.9.9s.4.9.9.9h8.7c.5 0 .9-.4.9-.9-.1-.5-.5-.9-.9-.9zM13 19.5H7.8c-.5 0-.9.4-.9.9s.4.9.9.9H13c.5 0 .9-.4.9-.9s-.4-.9-.9-.9zM35.5 19.5h-19c-.5 0-.9.4-.9.9s.4.9.9.9h19.1c.5 0 .9-.4.9-.9-.1-.5-.5-.9-1-.9zM35.5 23H4.3c-.5 0-.9.4-.9.9s.4.9.9.9h31.2c.5 0 .9-.4.9-.9s-.4-.9-.9-.9zM26.9 26.4H4.3c-.5 0-.9.4-.9.9s.4.9.9.9h22.5c.5 0 .9-.4.9-.9s-.4-.9-.8-.9zM35.5 26.4h-5.2c-.5 0-.9.4-.9.9s.4.9.9.9h5.2c.5 0 .9-.4.9-.9s-.4-.9-.9-.9zM35.5 29.9H19.9c-.5 0-.9.4-.9.9s.4.9.9.9h15.6c.5 0 .9-.4.9-.9s-.4-.9-.9-.9zM16.5 29.9H4.3c-.5 0-.9.4-.9.9s.4.9.9.9h12.1c.5 0 .9-.4.9-.9s-.4-.9-.8-.9zM35.5 33.4H32c-.5 0-.9.4-.9.9s.4.9.9.9h3.5c.5 0 .9-.4.9-.9s-.4-.9-.9-.9zM8.7 33.4H4.3c-.5 0-.9.4-.9.9s.4.9.9.9h4.3c.5 0 .9-.4.9-.9s-.4-.9-.8-.9zM28.6 33.4H12.1c-.5 0-.9.4-.9.9s.4.9.9.9h16.5c.5 0 .9-.4.9-.9s-.4-.9-.9-.9zM34.7 43.8H22.5c-.5 0-.9.4-.9.9s.4.9.9.9h12.1c.5 0 .9-.4.9-.9s-.4-.9-.8-.9zM27.7 5.6H12.1c-.5 0-.9.4-.9.9s.4.9.9.9h15.6c.5 0 .9-.4.9-.9s-.4-.9-.9-.9zM51.1 8.2h-2.6c0-1.9-1.6-3.5-3.5-3.5s-3.5 1.6-3.5 3.5v31.2c0 2.5 1 4.8 2.7 6.5l.1.1c.3.3.9.3 1.2 0l.1-.1c1.7-1.7 2.7-4.1 2.7-6.5V10H50v7.8h2V9.1c0-.5-.4-.9-.9-.9zm-6 36c-.9-1.1-1.5-2.5-1.7-3.9h3.4c-.2 1.4-.8 2.8-1.7 3.9zm1.7-5.6h-3.5V10h3.5v28.6zM43.3 8.2c0-1 .8-1.7 1.7-1.7 1 0 1.7.8 1.7 1.7h-3.4zM35.5 14.3H25.1c-.5 0-.9.4-.9.9s.4.9.9.9h10.4c.5 0 .9-.4.9-.9s-.4-.9-.9-.9zM23.4 36.8H4.3c-.5 0-.9.4-.9.9s.4.9.9.9h19.1c.5 0 .9-.4.9-.9s-.4-.9-.9-.9z"/></g></svg>