<svg xmlns="http://www.w3.org/2000/svg" viewBox="0 0 48.6 56.2"><path d="M48.4 48.9c.2.2.2.5.2.7-.1.5-.6.9-1.1.8l-7.2-.9-1.8 6c-.1.4-.4.6-.8.7-.4.1-.8-.1-1-.4l-6.5-8c-1.6 1.5-3.7 2.4-5.9 2.5-2.2-.1-4.3-1-5.9-2.5l-6.5 8c-.2.3-.6.4-1 .4-.4-.1-.7-.3-.8-.7l-1.8-6-7.2.9c-.3 0-.5 0-.7-.2-.4-.3-.5-.9-.2-1.3l6.2-7.6c-2-.6-3.7-1.8-4.9-3.5-1.5-2.4-.8-5.3-.2-8.2.4-1.4.7-2.9.7-4.4-.1-1.5-.3-3-.7-4.4C.7 18 0 15 1.5 12.6 3 10.1 6 9.2 9 8.3c1.5-.4 2.9-.9 4.2-1.6 1.2-.8 2.3-1.6 3.4-2.6C18.7 2.2 21.2 0 24.3 0s5.6 2.2 7.8 4.1c1 1 2.2 1.9 3.4 2.6 1.3.7 2.8 1.2 4.2 1.6 2.9.9 6 1.8 7.5 4.3 1.5 2.4.8 5.3.2 8.2-.4 1.5-.6 2.9-.7 4.4.1 1.5.3 3 .7 4.4.6 2.8 1.3 5.8-.2 8.2-1.2 1.7-2.9 2.9-4.9 3.5l6.1 7.6zm-31.5-2.3l-.3-.3c-1-1-2.2-1.9-3.4-2.6-1.3-.7-2.8-1.2-4.2-1.6l-.6-.2-5.1 6.3 5.7-.7c.5-.1 1 .2 1.1.7l1.5 5 5.3-6.6zm13.8-1.7c1.1-1.1 2.4-2.1 3.7-2.9 1.5-.7 3-1.3 4.6-1.7 2.7-.8 5.2-1.6 6.3-3.4 1.1-1.8.5-4.2-.1-6.8-.4-1.6-.7-3.2-.7-4.8.1-1.6.3-3.3.7-4.8.6-2.6 1.1-5 .1-6.8-1.1-1.8-3.6-2.6-6.3-3.4-1.6-.4-3.1-1-4.6-1.7-1.3-.8-2.6-1.8-3.7-2.9-2.1-1.8-4.1-3.6-6.4-3.6-2.3 0-4.3 1.7-6.4 3.6-1.1 1.1-2.4 2.1-3.7 2.9-1.5.7-3 1.3-4.6 1.7-2.7.8-5.2 1.6-6.3 3.4-1.1 1.8-.5 4.2.1 6.8.3 1.5.6 3.1.6 4.7-.1 1.6-.3 3.3-.7 4.8-.6 2.6-1.1 5-.1 6.8 1.1 1.8 3.6 2.6 6.3 3.4 1.6.4 3.1 1 4.6 1.7 1.3.8 2.6 1.8 3.7 2.9 2.1 1.8 4.1 3.6 6.4 3.6 2.4.1 4.4-1.7 6.5-3.5zm14.6 3.3l-5.1-6.3-.6.2c-1.5.4-2.9.9-4.2 1.6-1.2.8-2.3 1.6-3.4 2.6l-.3.3 5.3 6.5 1.5-5c.1-.5.6-.8 1.1-.7l5.7.8z" fill="#84bc30"/><path d="M42.5 25.2c0 9.6-8.2 17.5-18.2 17.5-10.1 0-18.2-7.8-18.2-17.5S14.2 7.8 24.3 7.8c10 0 18.2 7.8 18.2 17.4zm-2 0c0-8.6-7.3-15.5-16.2-15.5-8.9 0-16.2 6.9-16.2 15.5s7.3 15.5 16.2 15.5c8.9 0 16.2-6.9 16.2-15.5z" fill="#84bc30"/><path d="M35.5 23.9l-5 3.5 1.9 5.7c.3.8 0 1.7-.7 2.2-.7.5-1.7.5-2.4 0l-5-3.5-5 3.5c-.5.4-1.2.5-1.8.3-1.1-.3-1.6-1.4-1.3-2.4l1.9-5.7-5-3.5c-.5-.4-.8-.9-.8-1.6 0-1.1.9-1.9 2-1.9h6.2l1.9-5.6c.2-.6.7-1 1.3-1.2 1.1-.3 2.2.2 2.6 1.2l1.9 5.6h6.2c.6 0 1.3.3 1.6.8.6.7.4 1.9-.5 2.6zm-1.2-1.6h-6.9c-.4 0-.8-.3-1-.7l-2.1-6.3-2.1 6.3c-.1.4-.5.7-1 .7h-6.9l5.6 3.9c.4.2.5.7.4 1.1l-2.1 6.3 5.6-3.9c.4-.2.8-.2 1.2 0l5.6 3.9-2.1-6.3c-.1-.4 0-.8.4-1.1l5.4-3.9z" fill="#84bc30"/></svg>