<svg xmlns="http://www.w3.org/2000/svg" viewBox="0 0 53 49.2"><path d="M37.1 35.3v3.4l-1.3-.8c-.3-.2-.7-.2-1 0l-1.3.8v-3.4h-1.8v4.9c0 .3.2.6.5.7.3.1.6.1.9 0l2.2-1.3 2.2 1.3c.1.1.3.1.5.1.1 0 .3 0 .4-.1.3-.1.5-.4.5-.7v-4.9h-1.8zM31.8 8.2H20.3v1.6h11.5V8.2zM40.6 13.1H12.4v1.6h28.3v-1.6zM31.8 18.1H12.4v1.6h19.4v-1.6zM40.6 18.1h-5.3v1.6h5.3v-1.6zM40.6 23H12.4v1.6h28.3V23zM23 27.9H12.4v1.6H23v-1.6zM16.8 32h-4.4v1.6h4.4V32zM23 32h-2.6v1.6H23V32zM48.6 0c-2.4 0-4.4 1.8-4.4 4.1v1.6c0 .5.4.8.9.8h7.1c.5 0 .9-.4.9-.8V4.1C53 1.8 51 0 48.6 0zm2.6 4.9h-5.3v-.8c0-1.4 1.2-2.5 2.6-2.5 1.5 0 2.7 1.1 2.7 2.5v.8z" fill="#84bc30"/><path d="M48.6 0H11.5C9 0 7.1 1.8 7.1 4.1v39.4h1.8V4.1c0-1.4 1.2-2.5 2.6-2.5h33.6c-.6.7-.9 1.5-.9 2.5v41c0 1.4-1.2 2.5-2.6 2.5H8v1.6h33.6c2.4 0 4.4-1.8 4.4-4.1v-41c0-1.4 1.2-2.5 2.6-2.5.5 0 .9-.4.9-.8s-.4-.8-.9-.8z" fill="#84bc30"/><path d="M41.5 47.6c-1.5 0-2.7-1.1-2.7-2.5v-1.6c0-.5-.4-.8-.9-.8H.9c-.5 0-.9.3-.9.8v1.6c0 2.3 2 4.1 4.4 4.1h37.1c.5 0 .9-.4.9-.8s-.4-.8-.9-.8zm-37.1 0c-1.5 0-2.7-1.1-2.7-2.5v-.8H37v.8c0 .9.3 1.8.9 2.5H4.4z" fill="#84bc30"/></svg>