<svg xmlns="http://www.w3.org/2000/svg" width="23" height="19" viewBox="0 0 23 19"><path fill="#84bc30" d="M17.104 7.554s.93-.623.222-1.246c-.708-.623-1.396.181-1.396.181L8.812 12.76s-1.667 1.895-2.935.75c-1.265-1.148.85-2.586.85-2.586l9.333-8.22s2.178-2.113 4.226-.311c2.044 1.803-.362 3.725-.362 3.725L9.437 15.355s-3.355 3.414-6.46.678c-3.106-2.737.807-5.659.807-5.659l7.962-7.014s.891-.656.223-1.246c-.67-.59-1.413.197-1.413.197L1.42 10.358s-3.448 3.33.403 6.722c3.85 3.394 7.635.356 7.635.356l12.556-11.06s2.512-2.441-.483-5.081c-2.995-2.64-5.767-.427-5.767-.427L4.96 10.383s-2.767 1.983-.256 4.193c2.51 2.213 4.72-.26 4.72-.26z"/></svg>