<svg xmlns="http://www.w3.org/2000/svg" viewBox="0 0 23.6 24"><path d="M8.2 19.1L4.8 23l-3.4-3.9c-1.8-2.1-1.8-5.5 0-7.6.9-1 2.1-1.6 3.4-1.6 1.3 0 2.5.6 3.4 1.6 1.8 2.2 1.8 5.6 0 7.6zm-.6-.5c1.6-1.8 1.6-4.7 0-6.5-.8-.9-1.8-1.3-2.8-1.3-1.1 0-2.1.5-2.8 1.3-1.6 1.8-1.6 4.7 0 6.5l2.8 3.2 2.8-3.2zM16.7 6.9c-1.4-1.6-1.4-4.1 0-5.7.7-.8 1.6-1.2 2.6-1.2s1.9.4 2.6 1.2c1.4 1.6 1.4 4.1 0 5.7l-2.6 2.9-2.6-2.9zm.6-.5l2 2.2 2-2.2c1.1-1.3 1.1-3.3 0-4.6-.5-.6-1.2-.9-2-.9s-1.5.3-2 .9c-1.1 1.2-1.1 3.3 0 4.6zM20.8 21.8c-.2 0-.4.1-.5.3 0 .2-.1.4-.3.6-.1.2-.1.4 0 .6.2.1.4.1.6 0 .2-.3.3-.6.4-.9.2-.3.1-.5-.2-.6zM12.6 12.4c-.2 0-.3 0-.5-.1s-.4 0-.5.2c-.1.2 0 .4.2.5.3.1.5.1.8.1h.1c.2 0 .4-.2.4-.4s-.2-.4-.4-.4h-.1zM11.7 9.9c.1 0 .1 0 .2-.1.2-.1.4-.2.6-.2.2 0 .4-.2.4-.4s-.2-.4-.4-.4c-.3 0-.6.1-.9.3-.2.1-.2.4-.1.6-.1.1 0 .2.2.2zM7 23.2h-.8c-.2 0-.4.2-.4.4s.2.4.4.4H7c.2 0 .4-.2.4-.4s-.1-.4-.4-.4zM14.2 16h-.1c-.2 0-.4.2-.4.4s.2.4.4.4h.8c.2 0 .4-.2.4-.4s-.2-.4-.4-.4h-.7zM14 9.6h.8c.2 0 .4-.2.4-.4s-.2-.4-.4-.4H14c-.2 0-.4.2-.4.4s.2.4.4.4zM18.9 16c-.2 0-.4.2-.4.4s.2.4.4.4h.8c.2 0 .4-.2.4-.4s-.2-.4-.4-.4h-.8zM20.3 12.8c0-.2-.2-.4-.4-.4h-.8c-.2 0-.4.2-.4.4s.2.4.4.4h.8c.3 0 .4-.2.4-.4zM16.5 16.8h.8c.2 0 .4-.2.4-.4s-.2-.4-.4-.4h-.8c-.2 0-.4.2-.4.4s.2.4.4.4zM17.2 9.6c.2 0 .4-.2.4-.4s-.2-.4-.4-.4h-.8c-.2 0-.4.2-.4.4s.2.4.4.4h.8zM14.3 12.4c-.2 0-.4.2-.4.4s.2.4.4.4h.8c.2 0 .4-.2.4-.4s-.2-.4-.4-.4h-.8zM17.9 12.8c0-.2-.2-.4-.4-.4h-.8c-.2 0-.4.2-.4.4s.2.4.4.4h.8c.3 0 .4-.2.4-.4zM23.6 14.3c0-.2-.2-.4-.5-.3-.2 0-.4.2-.3.5v.6c-.1.2.1.4.3.5s.4-.1.5-.3v-1zM16.6 23.2h-.8c-.2 0-.4.2-.4.4s.2.4.4.4h.8c.2 0 .4-.2.4-.4s-.1-.4-.4-.4zM14.2 23.2h-.8c-.2 0-.4.2-.4.4s.2.4.4.4h.8c.2 0 .4-.2.4-.4s-.1-.4-.4-.4zM18.6 20c0-.2-.2-.4-.4-.4h-.8c-.2 0-.4.2-.4.4s.2.4.4.4h.8c.3 0 .4-.2.4-.4zM16.2 20c0-.2-.2-.4-.4-.4H15c-.2 0-.4.2-.4.4s.2.4.4.4h.8c.3 0 .4-.2.4-.4zM19 23.2h-.8c-.2 0-.4.2-.4.4s.2.4.4.4h.8v-.4.4c.2 0 .4-.2.4-.4s-.2-.4-.4-.4zM20.4 21.1c.2 0 .4-.2.4-.4 0-.1 0-.2-.1-.2-.2-.3-.5-.5-.8-.6-.2-.1-.4 0-.5.1s0 .4.1.5c.2.1.4.2.5.4.2.1.3.2.4.2zM21.9 15.9c-.1.1-.3.1-.5.1h-.1c-.2 0-.4.2-.4.4s.2.4.4.4h.1c.3 0 .6-.1.9-.2.2-.1.3-.3.2-.5s-.4-.3-.6-.2zM11 11.9c.2-.1.3-.3.3-.5-.1-.2-.1-.4-.1-.6 0-.2-.1-.4-.3-.5-.2 0-.4.1-.5.3 0 .3 0 .7.1 1 .1.3.3.4.5.3zM9.4 23.2h-.8c-.2 0-.4.2-.4.4s.2.4.4.4h.8c.2 0 .4-.2.4-.4s-.1-.4-.4-.4zM13.5 20.2c.2 0 .4-.2.4-.4s-.1-.3-.2-.4c-.2-.1-.4-.2-.5-.4-.1-.2-.4-.2-.6-.1-.2.1-.2.4-.1.6.2.2.5.5.8.6 0 .1.1.1.2.1zM22.5 12.7c-.3-.2-.6-.3-.9-.3-.2 0-.4.1-.4.4s.1.4.4.4c.2 0 .4.1.6.2.2.1.4 0 .5-.2 0-.2 0-.4-.2-.5zM11.8 23.2H11c-.2 0-.4.2-.4.4s.2.4.4.4h.8c.2 0 .4-.2.4-.4s-.1-.4-.4-.4zM12.8 17.9c0-.2.1-.4.2-.6.1-.2.1-.4-.1-.6-.2-.1-.4-.1-.6.1-.2.3-.3.6-.4.9 0 .2.1.4.3.5.4.1.6-.1.6-.3z" fill="#84bc30"/><path d="M17.2 3.8c0-1.2 1-2.2 2.2-2.2s2.2 1 2.2 2.2-1 2.2-2.2 2.2-2.2-1-2.2-2.2zm.8 0c0 .8.6 1.4 1.4 1.4s1.4-.6 1.4-1.4-.6-1.4-1.4-1.4S18 3 18 3.8zM7.2 14.8c0 1.3-1.1 2.4-2.4 2.4-1.3 0-2.4-1.1-2.4-2.4 0-1.3 1.1-2.4 2.4-2.4s2.4 1.1 2.4 2.4zm-.8 0c0-.9-.7-1.6-1.6-1.6s-1.6.7-1.6 1.6.7 1.6 1.6 1.6 1.6-.7 1.6-1.6z" fill="#84bc30"/></svg>