<svg xmlns="http://www.w3.org/2000/svg" viewBox="0 0 32 32"><path d="M19.7 27.1c.6.4.8 1.2.4 1.9l-1 1.7c-.3.6-.9 1-1.5 1.2-.5 0-1.1.1-1.6.1-2.3 0-5.7-1.2-10.2-5.7C0 20.6-.4 16.7.2 14.4c.2-.6.6-1.2 1.2-1.5l1.7-1c.6-.4 1.4-.2 1.8.4l2.7 4c.4.6.3 1.4-.3 1.8l-1.5 1.2c-.1.1-.2.3-.1.4l.1.3c.7 1.3 1.6 2.5 2.7 3.5 1 1.1 2.2 2 3.4 2.7h.7l1.1-1.4c.4-.6 1.2-.7 1.8-.3l4.2 2.6zm-.5 1.3c.1-.1 0-.3-.1-.4l-4-2.7c-.1-.1-.3-.1-.4.1l-1.2 1.5-.2.2c-.4.4-1 .4-1.5.1l-.2-.1c-1.4-.8-2.6-1.7-3.7-2.9-1.2-1.1-2.2-2.3-2.9-3.7l-.1-.2c-.3-.6-.2-1.3.4-1.7l1.5-1.2c.1-.1.2-.3.1-.4l-2.7-4c-.1-.1-.3-.2-.4-.1l-1.7 1c-.3.2-.6.5-.7.9-.8 2.8 1.1 6.7 5.2 10.8s8 6 10.8 5.2c.4-.1.7-.4.9-.7l.9-1.7zM30.4 2.7h-.5V.5c0-.3-.2-.5-.5-.5s-.5.2-.5.5v2.1h-2.7V.5c0-.3-.2-.5-.5-.5s-.5.2-.5.5v2.1h-2.7V.5c0-.3-.2-.5-.5-.5s-.5.2-.5.5v2.1h-2.7V.5c0-.3-.2-.5-.5-.5s-.5.2-.5.5v2.1h-2.7V.5c0-.3-.2-.5-.5-.5s-.5.2-.5.5v2.1h-2.7V.5c-.2-.3-.4-.5-.7-.5-.3 0-.5.2-.5.5v2.1H7.5V.5c0-.3-.3-.5-.6-.5s-.5.2-.5.5v2.1h-.5c-.9.1-1.6.8-1.6 1.7v5.9c0 .3.2.5.5.5s.5-.2.5-.5V8h23.5c.3 0 .5-.2.5-.5s-.2-.5-.5-.5H5.3V4.3c0-.3.2-.5.5-.5h24.5c.3 0 .5.2.5.5v21.3c0 .3-.2.5-.5.5h-9.1c-.3 0-.5.2-.5.5s.2.5.5.5h9.1c.9 0 1.6-.7 1.6-1.6V4.3c.1-.9-.6-1.6-1.5-1.6z" fill="#84bc30"/><path d="M7.1 4.8h-.5V5c-.2.2-.2.5 0 .8.1 0 .3.1.4.1h.2l.1-.1c.2-.2.2-.5 0-.8l-.2-.2c.1.1.1.1 0 0zm3.8 0h-.5l-.1.2c-.2.2-.2.5 0 .8.1.1.3.2.5.1h.2v-.2c.2-.2.2-.5 0-.8l-.1-.1c0 .1 0 .1 0 0zm3.7 0h-.5L14 5c-.2.2-.2.5 0 .8.1.1.3.2.5.1h.2l.1-.1c.2-.3.2-.6 0-.8l-.2-.2c.1.1 0 .1 0 0zm3.7 0h-.5V5c-.2.2-.2.5 0 .8.1.1.3.2.5.1h.2l.1-.1c.2-.2.2-.5 0-.8l-.3-.2c.1.1.1.1 0 0zm3.8 0h-.5l-.1.2c-.2.2-.2.5 0 .8.1.1.3.2.5.1h.2l.1-.1c.2-.2.2-.5 0-.8l-.2-.2c0 .1 0 .1 0 0zm3.7 0h-.5l-.1.2c-.2.2-.2.5 0 .8.1.1.3.2.5.1h.2l.1-.2c.2-.2.2-.5 0-.8l-.2-.1c.1.1 0 .1 0 0zm3.8 1c.3-.3.3-.6.1-.8l-.1-.1H29V5c-.2.2-.2.5 0 .8.1.1.3.2.5.1 0 0 0-.1.1-.1zm-20 8.6h.5v-3.2h-.5c-.3 0-.5-.2-.5-.5s.2-.5.5-.5h18.7c.3 0 .5.2.5.5v12.8c0 .3-.2.5-.5.5h-8c-.3 0-.5-.2-.5-.5s.2-.5.5-.5h1.6v-3.2h-5.3c-.3 0-.5-.2-.5-.5v-3.7H9.6c-.3 0-.5-.2-.5-.5 0-.5.2-.7.5-.7zm13.3 0h4.8v-3.2h-4.8v3.2zm0 4.3h4.8v-3.2h-4.8v3.2zm0 4.2h4.8v-3.2h-4.8v3.2zm-5.8-8.5h4.8v-3.2h-4.8v3.2zm0 4.3h4.8v-3.2h-4.8v3.2zm-5.9-4.3H16v-3.2h-4.8v3.2z" fill="#84bc30"/></svg>