<svg xmlns="http://www.w3.org/2000/svg" viewBox="0 0 22.5 17.3"><path d="M21.4 0c.6 0 1.1.5 1.1 1.1v15c0 .6-.5 1.1-1.1 1.1H1.1c-.6 0-1.1-.5-1.1-1.1v-15C0 .5.5 0 1.1 0h20.3zm.4 16.1v-15c0-.2-.2-.4-.4-.4H1.1C.9.7.7.9.7 1.1v15c0 .2.2.4.4.4h20.3c.2 0 .4-.2.4-.4z" fill="#84bc30"/><path d="M20.7 1.5c-.1 0-.2 0-.3.1l-8.7 7.3c-.3.2-.7.2-1 0L2.1 1.6c-.1-.1-.4-.1-.5 0-.1.2-.1.4 0 .6l8.7 7.3c.6.5 1.4.5 1.9 0l8.7-7.3c.1-.2.1-.4 0-.6-.1 0-.1-.1-.2-.1zM7.2 9.4c-.1 0-.3 0-.4.1l-5.3 5.6c-.1.1-.1.4 0 .5s.4.1.5 0L7.4 10c.1-.1.1-.4 0-.5-.1-.1-.1-.1-.2-.1zM15.6 9.5c-.1-.2-.4-.2-.5 0s-.2.4 0 .5l5.3 5.6c.1.1.4.2.5 0 .1-.1.2-.4 0-.5l-5.3-5.6z" fill="#84bc30"/></svg>