<svg xmlns="http://www.w3.org/2000/svg" viewBox="0 0 22.5 22.5"><path d="M21.9 17.4c.6.4.8 1.2.4 1.8L21.2 21c-.4.6-.9 1-1.6 1.2-.6.2-1.2.2-1.8.2-2.6 0-6.3-1.4-11.4-6.4C.1 9.7-.5 5.4.2 2.9c.2-.7.6-1.2 1.2-1.6L3.3.2C4-.2 4.8 0 5.1.6l3 4.6c.4.6.3 1.4-.3 1.8L6.2 8.2c-.2.2-.3.5-.2.8l.1.3c.5.8 1 1.9 3.1 4s3.1 2.7 4 3.1l.3.1c.2.1.6.1.7-.2l1.3-1.7c.4-.5 1.2-.7 1.8-.3l4.6 3.1zm-.2 1.4c.2-.3.1-.6-.2-.8l-4.6-3c-.3-.2-.6-.1-.8.1l-1.3 1.7c-.4.5-1.1.7-1.7.3l-.2-.1c-.9-.5-2-1.1-4.1-3.3S6 10.5 5.5 9.6l-.1-.3c-.3-.5-.2-1.2.3-1.6l1.7-1.3c.2-.2.3-.5.1-.8L6.2 3.5 4.5 1C4.4.8 4 .7 3.7.8L1.8 2c-.4.2-.7.6-.8 1.1C.4 5.4.9 9.4 7 15.5c6.1 6.1 10.1 6.6 12.4 6 .5-.1.9-.5 1.1-.9l1.2-1.8zM12.7 3.7c3.5 0 6.4 2.9 6.4 6.4 0 .2.2.4.4.4s.4-.2.4-.4c0-3.9-3.2-7.1-7.1-7.1-.2 0-.4.2-.4.4s.1.3.3.3z" fill="#84bc30"/><path d="M12.7 6c2.3 0 4.1 1.8 4.1 4.1 0 .2.2.4.4.4s.4-.2.4-.4c0-2.7-2.2-4.9-4.9-4.9-.2 0-.4.2-.4.4s.2.4.4.4z" fill="#84bc30"/><path d="M12.7 8.2c1 0 1.9.8 1.9 1.9 0 .2.2.4.4.4s.4-.2.4-.4c0-1.4-1.2-2.6-2.6-2.6-.2 0-.4.2-.4.4s.1.3.3.3z" fill="#84bc30"/></svg>