<?xml version="1.0" encoding="utf-8"?>
<!-- Generator: Adobe Illustrator 21.0.2, SVG Export Plug-In . SVG Version: 6.00 Build 0)  -->
<svg version="1.1" id="Слой_1" xmlns="http://www.w3.org/2000/svg" xmlns:xlink="http://www.w3.org/1999/xlink" x="0px" y="0px"
	 viewBox="0 0 54 54" enable-background="new 0 0 54 54" xml:space="preserve">
<linearGradient id="SVGID_1_" gradientUnits="userSpaceOnUse" x1="46.0919" y1="7.9081" x2="7.9081" y2="46.0919">
	<stop  offset="0" style="stop-color:#6C1CD1"/>
	<stop  offset="0.5078" style="stop-color:#FF1C74"/>
	<stop  offset="0.6946" style="stop-color:#FF7950"/>
	<stop  offset="0.7486" style="stop-color:#FE9838"/>
	<stop  offset="0.8171" style="stop-color:#FCB720"/>
	<stop  offset="0.8833" style="stop-color:#FBCE0E"/>
	<stop  offset="0.9456" style="stop-color:#FADC04"/>
	<stop  offset="1" style="stop-color:#FAE100"/>
</linearGradient>
<circle fill="url(#SVGID_1_)" cx="27" cy="27" r="27"/>
<linearGradient id="SVGID_2_" gradientUnits="userSpaceOnUse" x1="37.7256" y1="39.0858" x2="15.8179" y2="17.1782" gradientTransform="matrix(1 0 0 -1 1.831055e-04 55.4864)">
	<stop  offset="0" style="stop-color:#833AB4"/>
	<stop  offset="9.220000e-02" style="stop-color:#9C3495"/>
	<stop  offset="0.2927" style="stop-color:#DC2546"/>
	<stop  offset="0.392" style="stop-color:#FD1D1D"/>
	<stop  offset="0.5589" style="stop-color:#FC6831"/>
	<stop  offset="0.6887" style="stop-color:#FC9B40"/>
	<stop  offset="0.7521" style="stop-color:#FCAF45"/>
	<stop  offset="0.7806" style="stop-color:#FDB750"/>
	<stop  offset="0.8656" style="stop-color:#FECB6A"/>
	<stop  offset="0.9415" style="stop-color:#FFD87A"/>
	<stop  offset="1" style="stop-color:#FFDC80"/>
</linearGradient>
<path fill="url(#SVGID_2_)" d="M10,20.5c0.1-0.8,0.2-1.6,0.3-2.4c0.8-4.5,4-7.5,8.5-7.7c5.5-0.2,10.9-0.2,16.4,0
	c4.9,0.2,8.5,3.8,8.7,8.8c0.2,5.2,0.2,10.5,0,15.7c-0.2,4.9-3.7,8.6-8.7,8.8c-5.5,0.2-10.9,0.2-16.4,0c-4.9-0.2-8.3-3.8-8.7-8.8
	c0-0.4-0.1-0.9-0.2-1.3C10,29.3,10,24.9,10,20.5z M27,40.8c2.5,0,5,0.1,7.5,0c3.9-0.1,6.3-2.5,6.4-6.4c0.1-4.9,0.1-9.7,0-14.6
	c-0.1-3.9-2.5-6.3-6.4-6.4c-5-0.1-9.9-0.1-14.9,0c-3.9,0.1-6.3,2.4-6.4,6.3c-0.1,4.9-0.1,9.9,0,14.8c0.1,3.9,2.5,6.2,6.4,6.3
	C22,40.9,24.5,40.8,27,40.8z"/>
<g>
	<path fill="#FFFFFF" d="M10,20.5c0.1-0.8,0.2-1.6,0.3-2.4c0.8-4.5,4-7.5,8.5-7.7c5.5-0.2,10.9-0.2,16.4,0c4.9,0.2,8.5,3.8,8.7,8.8
		c0.2,5.2,0.2,10.5,0,15.7c-0.2,4.9-3.7,8.6-8.7,8.8c-5.5,0.2-10.9,0.2-16.4,0c-4.9-0.2-8.3-3.8-8.7-8.8c0-0.4-0.1-0.9-0.2-1.3
		C10,29.3,10,24.9,10,20.5z M27,40.8c2.5,0,5,0.1,7.5,0c3.9-0.1,6.3-2.5,6.4-6.4c0.1-4.9,0.1-9.7,0-14.6c-0.1-3.9-2.5-6.3-6.4-6.4
		c-5-0.1-9.9-0.1-14.9,0c-3.9,0.1-6.3,2.4-6.4,6.3c-0.1,4.9-0.1,9.9,0,14.8c0.1,3.9,2.5,6.2,6.4,6.3C22,40.9,24.5,40.8,27,40.8z"/>
	<path fill="#FFFFFF" d="M27,18.4c-4.8,0-8.7,3.9-8.7,8.7c0,4.8,3.9,8.7,8.7,8.7c4.8,0,8.7-3.9,8.7-8.7C35.6,22.3,31.8,18.4,27,18.4
		z M27,32.8c-3.1,0-5.7-2.5-5.7-5.7s2.5-5.7,5.7-5.7s5.7,2.5,5.7,5.7S30.1,32.8,27,32.8z"/>
	<path fill="#FFFFFF" d="M38.2,18c0,1.1-0.9,2.1-2.1,2.1c-1.1,0-2.1-0.9-2.1-2.1c0-1.1,0.9-2.1,2.1-2.1C37.3,15.9,38.2,16.9,38.2,18
		z"/>
</g>
</svg>
