<svg xmlns="http://www.w3.org/2000/svg" xmlns:xlink="http://www.w3.org/1999/xlink" viewBox="0 0 131.7 80"><defs><path id="a" d="M0 0h131.7v80H0z"/></defs><clipPath id="b"><use xlink:href="#a" overflow="visible"/></clipPath><g clip-path="url(#b)"><path d="M4.4 48.4v12.9h3.8V48.4h3.6v-3.8H.8v3.8h3.6zm13.6 13v-4.3h2.7c7.1 0 7.1-12.5 0-12.5h-6.6v16.8H18zm2.7-8.2H18v-4.8h2.7c2.2.1 2.1 4.8 0 4.8zm17.2-.1v8.2h3.9V44.5h-1.4l-7.5 8.3v-8.2H29v16.8h1.4l7.5-8.3zm18.9 3l2.7 5.3h4.1v-.6l-4.8-8.2 4.3-7.2v-.6h-3.9L56.8 49h-.1l-2.4-4.4h-4v.6l4.3 7.2-4.8 8.2v.6H54l2.7-5.3.1.2zM80.2 53c0-11.6-15.3-11.6-15.3 0s15.3 11.6 15.3 0zm-11.4 0c0-6 7.5-6 7.5 0 0 6.1-7.5 6.1-7.5 0zm19.9-1.4l3.8 9.8h3.7v-.6l-6.7-16.4h-1.6l-6.7 16.4v.6h3.7l3.8-9.8zm16.8.2l-5.8-7.3h-1.4v16.8h3.9v-7.5l3.2 3.7h.4l3.2-3.7v7.5h3.9V44.6h-1.4l-6 7.2zm20.5 9.6h3.7v-.6L123 44.4h-1.6l-6.7 16.4v.6h3.7l.9-2.1h5.9l.8 2.1zm-2.1-5.8h-3.4l1.7-4.4 1.7 4.4zM65.1 1.8l-7.6 12.1 1.2.1v6.9c.8-.2 1.6-.5 2.4-.7v-6.8l4.1-7 4 6.6v5.7c.8-.1 1.6-.2 2.3-.2v-5.3l23.9 1.6-8.5-11.5L75 2.4V.2L71.8 0l-.9.5v1.6l-5.8-.3zM86.7 16h1c.2 0 .4.2.4.5V18.8c0 .1-.1.1-.1.2l-.1.1h-1.2c-.1 0-.2-.1-.3-.2s-.1-.2-.1-.3v-2.1-.2c0-.1.1-.1.1-.2l.1-.1h.2zm-4.6-.4h1c.1 0 .2.1.3.2.1.1.1.2.1.4V18.5c0 .1-.1.1-.1.2 0 0-.1.1-.2.1H82c-.1 0-.2-.1-.3-.2-.1-.1-.1-.2-.1-.4v-2.1c0-.2.2-.5.5-.5zm8.6-.5v5.8h.2c.7-.2 1.4-.3 2.1-.4v-5.2l-2.3-.2zm-48.1-4.5l-7.1 7.6 1 .2v1.1L31.3 22c1.3-.1 2.5-.1 3.8 0 1 0 2 .1 3 .3v-3.6l4.5-4.8 3.8 4.6V24c.8.2 1.5.4 2.3.6v-6.9l6-6.7 2.2 1.5 2.7-4.2-4.9-.5-3.6 3.6-8.5-.8z" fill="#383f42"/><path d="M49.7 26c-8.2-2.1-16.8-4.5-25.3-1.3-4.1 1.6-7.9 3.9-12.1 6.5-3.9 2.5-8.2 5.3-11.4 8-2.2 1.9-.5 2.7 2 1.4 5.1-3.2 25.8-17.9 30-8.9.5 1 .8 2.1 1.3 2.9 2.1 4.2 8 1.1 10.9-.5 6.5-3.6 30.5-12.2 22.5-.8-3 4.2 4.7 3.9 7.1 3.3 22.5-5.6 30.9-14.7 53.7 4.4 1.3.7 1.9-.3 1.5-1-1.9-3.2-4-5.9-6.4-8.1.4-.3.7-.7.9-1.2.7-1.8-.3-4.1-2.2-5.2-.3-.2-.7-.3-1-.4.6-1.1.6-2.4 0-3.5-1-2-3.5-3.2-6.3-3.3.1-2.1-2.3-4-5.3-4.3-2.7-.3-5.1.8-5.9 2.5-.5-.1-1-.1-1.5-.1-3.6 0-6.6 2.6-6.6 5.9v.3c-5.8.6-11.6 1.8-16 3.2 2.3-1.6 5.2-2.9 8.2-3.8-13.9-6-33.4.9-38.1 4z" fill="#84bc30"/><path d="M5.9 79.6c-.2.2-.4.3-.7.3-.4.1-.7.1-1 .1-.4 0-.7-.1-1.1-.2-.3-.1-.6-.4-.9-.6-.3-.3-.5-.7-.6-1.2-.2-.5-.2-1.1-.2-1.7 0-.7.1-1.3.3-1.8.1-.5.3-.9.6-1.2.3-.3.6-.5.9-.6.3-.1.7-.2 1-.2.4 0 .7 0 .9.1.3.1.5.1.6.2L5.5 74c-.2-.1-.3-.1-.5-.2-.2 0-.5-.1-.7-.1-.5 0-.9.2-1.2.6-.3.4-.5 1-.5 1.9 0 .4 0 .7.1 1 .1.3.2.6.3.8.2.2.3.4.6.5.2.1.5.2.8.2.3 0 .5 0 .7-.1.2-.1.4-.1.5-.2l.3 1.2zm6-5.7H10v5.9H8.8v-5.9H6.9v-1.3h5v1.3zm1.5-1.2c.3-.1.5-.1.8-.1.3 0 .6-.1.9-.1.3 0 .6 0 .9.1l.9.3c.3.2.5.4.6.7.2.3.2.7.2 1.2s-.1.8-.2 1.2c-.1.3-.3.6-.6.8-.2.2-.5.3-.8.4-.3.1-.6.1-.9.1h-.4-.1v2.5h-1.2v-7.1zm1.8 1.1h-.6v2.3H15.2c.2 0 .3 0 .5-.1.2 0 .3-.1.4-.2.1-.1.2-.2.3-.4.1-.2.1-.4.1-.6 0-.2 0-.4-.1-.6-.1-.1-.2-.3-.3-.4-.1-.1-.3-.2-.4-.2-.2.2-.3.2-.5.2zm3.9 2.5c0-1.2.2-2.1.7-2.8.5-.7 1.1-1 2-1 .5 0 .8.1 1.2.3.3.2.6.4.8.8.2.3.4.7.5 1.2.1.5.2 1 .2 1.5 0 1.2-.2 2.1-.7 2.8-.5.6-1.1 1-2 1-.5 0-.9-.1-1.2-.3-.3-.2-.6-.4-.8-.8-.2-.4-.4-.8-.5-1.2-.2-.5-.2-1-.2-1.5zm1.3 0c0 .4 0 .7.1 1 .1.3.1.6.2.8.1.2.3.4.4.5.2.1.4.2.6.2.4 0 .8-.2 1-.6.2-.4.4-1 .4-1.9 0-.3 0-.7-.1-1 0-.3-.1-.5-.2-.8-.1-.2-.2-.4-.4-.5-.2-.1-.4-.2-.6-.2-.4 0-.8.2-1 .6-.3.4-.4 1-.4 1.9zm9.5-.4l.1-.9-.4 1-2.4 4h-.9v-7.2h1.2v3.9l-.1 1h.1l.4-1 2.4-3.9h.9V80H30v-4.1h-.1zm7.6-2h-1.9v5.9h-1.2v-5.9h-1.9v-1.3h5v1.3zm1.5-1.2h3.8V74h-2.5v1.7h2.3V77h-2.3v1.8h2.6v1.3H39v-7.4zm8.9 1.2h-1.4c0 .7-.1 1.2-.1 1.8 0 .5-.1 1-.1 1.4 0 .4-.1.8-.2 1.1l-.3.9c-.1.1-.2.3-.3.4-.1.1-.2.2-.3.2-.1.1-.2.1-.3.1-.3.1-.6 0-.9-.1l.1-1.2h.2c.1 0 .2 0 .3-.1.1-.1.2-.2.2-.3.1-.1.2-.4.2-.7.1-.4.1-.7.2-1.1.1-.5.1-1 .1-1.6 0-.6.1-1.4.1-2.2h3.7v7.2h-1.2v-5.8zm3.1-1.2h1.2v2.6H52.8c.4 0 .7 0 1.1.1.3.1.5.2.7.4.2.2.4.4.5.7.1.3.2.7.2 1.1 0 .8-.2 1.4-.7 1.9-.4.4-1.1.6-1.9.6h-.8c-.2 0-.3 0-.5-.1-.2 0-.3 0-.5-.1v-7.2zm1.9 6c.2 0 .3 0 .5-.1.1 0 .3-.1.4-.2.1-.1.2-.2.3-.4.1-.1.1-.3.1-.6 0-.2 0-.4-.1-.6-.1-.1-.2-.3-.3-.3-.1-.1-.3-.1-.4-.2h-.5H52.3h-.1v2.1c.1 0 .2 0 .3.1.1.2.3.2.4.2zm7.7-1.9h-2.3v3H57v-7.2h1.2v2.9h2.3v-2.9h1.2v7.2h-1.2v-3h.1zm6.3 1.5h-2l-.5 1.6h-1.2l2.3-7.2h.9l2.3 7.2h-1.3l-.5-1.6zm-1.7-1.2h1.4l-.5-1.6-.2-1.1-.2 1.1-.5 1.6zm9 2.8H73V77l-.7.2-1.3 2.7h-1.4l1.3-2.4.5-.4c-.2-.1-.4-.1-.5-.2-.2-.1-.3-.3-.4-.4l-.3-.6c-.2-.5-.2-.7-.2-1 0-.4.1-.8.2-1.1.1-.3.3-.5.6-.7.2-.2.5-.3.8-.4.3-.1.7-.1 1.1-.1.4 0 .8 0 1.2.1.1 0 .3 0 .4.1l-.1 7.1zm-1.7-6.1c-.2 0-.3 0-.5.1-.1 0-.3.1-.4.2l-.3.3c-.1.2-.1.4-.1.6 0 .2 0 .4.1.5.1.1.1.3.3.4.1.1.2.2.4.2.1 0 .3.1.5.1h.5V74h-.2c-.1-.2-.2-.2-.3-.2zm8.3 3h-.3v3.1h-1.2v-7.2h1.2v3.2l.3-.1 1.8-3H84l-1.9 3-.5.4.5.4 2.1 3.4h-1.5l-1.9-3.2zm4.4-.5c0-1.2.2-2.1.7-2.8.5-.7 1.1-1 2-1 .5 0 .8.1 1.2.3.3.2.6.4.8.8.2.3.4.7.5 1.2.1.5.2 1 .2 1.5 0 1.2-.2 2.1-.7 2.8-.5.6-1.1 1-2 1-.5 0-.9-.1-1.2-.3-.3-.2-.6-.4-.8-.8-.2-.4-.4-.8-.5-1.2-.1-.5-.2-1-.2-1.5zm1.3 0c0 .4 0 .7.1 1 .1.3.1.6.2.8.1.2.3.4.4.5.2.1.4.2.6.2.4 0 .8-.2 1-.6.2-.4.4-1 .4-1.9 0-.3 0-.7-.1-1 0-.3-.1-.5-.2-.8-.1-.2-.2-.4-.4-.5-.2-.1-.4-.2-.6-.2-.4 0-.8.2-1 .6-.2.4-.4 1-.4 1.9zm10.7-.2l.1-1.4h-.1l-.4 1.1-1.4 2.7H95l-1.4-2.7-.4-1.1.2 1.4v3.7h-1.2v-7.2h1.1l1.7 3.3.3.8.3-.8 1.6-3.3h1.1v7.2h-1.2v-3.7zm6.7-2.2h-2.2v5.9h-1.2v-7.2h4.7v7.2H104v-5.9h-.1zm6.2 4.4h-2l-.5 1.6h-1.2l2.3-7.2h.9l2.3 7.2h-1.3l-.5-1.6zm-1.6-1.2h1.4l-.5-1.6-.2-1.1-.2 1.1-.5 1.6zm8.4-.3h-2.3v3h-1.2v-7.2h1.2v2.9h2.3v-2.9h1.2v7.2h-1.2v-3zm6.8-.9l.1-.9-.4 1-2.4 4h-1v-7.2h1.2v3.9l-.1 1h.1l.4-1 2.4-3.9h.9V80h-1.2v-4.1zm7.4 4h-1.2V77l-.7.2-1.3 2.7h-1.4l1.3-2.4.5-.4c-.2-.1-.4-.1-.5-.2-.2-.1-.3-.3-.4-.4l-.3-.6c-.1-.3-.1-.5-.1-.8 0-.4.1-.8.2-1.1.1-.3.3-.5.6-.7.3-.2.5-.3.8-.4.3-.1.7-.1 1.1-.1.4 0 .8 0 1.2.1.1 0 .3 0 .4.1v6.9zm-1.7-6.1c-.2 0-.3 0-.5.1-.1 0-.3.1-.4.2l-.3.3c-.1.2-.1.4-.1.6 0 .2 0 .4.1.5.1.1.1.3.3.4.1.1.2.2.4.2.1 0 .3.1.5.1h.5V74h-.2c-.2-.2-.3-.2-.3-.2z" fill="#a1aaaf"/></g></svg>