<svg xmlns="http://www.w3.org/2000/svg" viewBox="0 0 80 74.4"><path d="M57 12.1c.7 0 1.3.6 1.3 1.3s-.6 1.3-1.3 1.3H13v3.7c0 .7-.6 1.3-1.3 1.3H6.3C5.6 19.6 5 19 5 18.3v-3.7H2.5v57.2h12.3c.7 0 1.3.6 1.3 1.3 0 .7-.6 1.3-1.3 1.3H1.3c-.7 0-1.3-.6-1.3-1.3V13.3c0-.7.6-1.3 1.3-1.3H5V1.3C5 .6 5.6 0 6.3 0h5.4c.7 0 1.3.6 1.3 1.3v10.8h44zM10.4 2.5H7.6V17h2.9l-.1-14.5zM78.7 12.1c.7 0 1.3.6 1.3 1.3v59.8c0 .7-.6 1.3-1.3 1.3h-57c-.7 0-1.3-.6-1.3-1.3s.6-1.3 1.3-1.3h55.8V14.6H75v3.7c0 .7-.6 1.3-1.3 1.3h-5.4c-.7 0-1.3-.6-1.3-1.3v-3.7h-4.6c-.7 0-1.3-.5-1.3-1.2s.5-1.3 1.2-1.3H67V1.3c0-.7.6-1.3 1.3-1.3h5.4c.7 0 1.3.6 1.3 1.3v10.8h3.7zm-6.3-9.6h-2.9V17h2.9V2.5z" fill="#c3c8ce"/><path d="M69.2 21.2c.7 0 1.3.6 1.3 1.3v15.1c0 .7-.6 1.3-1.3 1.3-4.7 0-8.5 3.5-9.2 8h9.2c.7 0 1.3.6 1.3 1.3V66c0 .7-.6 1.3-1.3 1.3H10.8c-.7 0-1.3-.6-1.3-1.3V22.5c0-.7.6-1.3 1.3-1.3h58.4zm-57.1 4.3h1.5V24h-1.5v1.5zm0 17h4.2v-9.3c0-.7.6-1.3 1.3-1.3 6.1 0 11.1 4.6 11.7 10.5h19.6V23.8H16.1v3c0 .7-.6 1.3-1.3 1.3H12l.1 14.4zm1.5 22.1V63h-1.5v1.5h1.5zm35.3-2.9h-9.3c-.7 0-1.3-.6-1.3-1.3 0-6.1 4.6-11.1 10.5-11.7V45H28.1c-.7 0-1.3-.6-1.3-1.3 0-4.7-3.5-8.5-8-9.2v9c.1.7-.4 1.3-1.1 1.4H12v15.5h2.8c.7 0 1.3.6 1.3 1.3v3h32.8v-3zm19 1.3h-1.5v1.5h1.5V63zm0-26.6V28h-2.8c-.7 0-1.3-.6-1.3-1.3v-3H51.5v26.1c0 .7-.6 1.3-1.3 1.3-4.7 0-8.5 3.5-9.2 8h9.2c.7 0 1.3.6 1.3 1.3v4.3h12.4v-3c0-.7.6-1.3 1.3-1.3H68v-11h-9.3c-.7 0-1.3-.6-1.3-1.3 0-6 4.6-11 10.5-11.7zm0-12.4h-1.5v1.5h1.5V24z" fill="#c3c8ce"/></svg>