<svg xmlns="http://www.w3.org/2000/svg" viewBox="0 0 44.8 46"><path d="M14.6 33.3c-.2 0-.4-.1-.5-.2-.1-.1-.2-.3-.2-.5v-9.3c0-.2.1-.4.3-.6l5.7-4.3c.3-.2.6-.2.9 0l5.7 4.3c.2.1.3.3.3.6v9.3c0 .2-.1.4-.2.5-.1.1-.3.2-.5.2H14.6zm7.1-1.5v-4.3h-2.8v4.3h2.8zm-6.4 0h2.1v-5c0-.2.1-.4.2-.5.1-.1.3-.2.5-.2h4.3c.2 0 .4.1.5.2.1.1.2.3.2.5v5h2.1v-8.2l-5-3.8-5 3.8.1 8.2z" fill="#c3c8ce"/><path d="M32.3 12.5c.2 0 .4.1.5.2.2.1.2.3.2.5v24.4c0 .2-.1.4-.2.5-.1.1-.3.2-.5.2H8.2c-.2 0-.4-.1-.5-.2-.1-.1-.2-.3-.2-.5V13.2c0-.2.1-.4.2-.5.1-.1.3-.2.5-.2h24.1zm-.7 1.4H8.9v22.9h22.7V13.9z" fill="#c3c8ce"/><path d="M44.8.7v44.5c0 .2-.1.4-.2.5-.2.2-.4.3-.6.3h-7.2c-.2 0-.4-.1-.5-.2-.1-.1-.2-.3-.2-.5V8.9H.7c-.2 0-.4-.1-.5-.2-.1-.2-.2-.3-.2-.5V.7C0 .5.1.3.2.2.3.1.5 0 .7 0H44c.1 0 .2 0 .3.1.3.1.5.3.5.6zm-1.5 43.8v-42l-1.7 1.7c-.1.1-.3.2-.5.2s-.4-.1-.5-.2c-.1-.1-.2-.3-.2-.5s.1-.4.2-.5l1.7-1.7H1.4v5.9h2.2v-3c0-.2.1-.4.2-.5.3-.3.7-.3 1 0 .2.2.3.4.3.6v3h2.2V5.9c0-.2.1-.4.2-.5.3-.3.7-.3 1 0 .1.1.2.3.2.5v1.5h2.2v-3c0-.2.1-.4.2-.5.3-.3.7-.3 1 0 .1.1.2.3.2.5v3h2.2V5.9c0-.2.1-.4.2-.5.3-.3.7-.3 1 0 .1.1.2.3.2.5v1.5h2.2v-3c0-.2.1-.4.2-.5.3-.3.7-.3 1 0 .1.1.2.3.2.5v3h2.2V5.9c0-.2.1-.4.2-.5.3-.3.7-.3 1 0 .1.1.2.3.2.5v1.5h2.2v-3c0-.2.1-.4.2-.5.3-.3.7-.3 1 0 .1.1.2.3.2.5v3h2.2V5.9c0-.2.1-.4.2-.5.3-.3.7-.3 1 0 .1.1.2.3.2.5v1.5h2.2v-3c0-.2.1-.4.2-.5.3-.3.7-.3 1 0 .1.1.2.3.2.5v3h2.6l2-2c.3-.3.7-.3 1 0 .3.3.3.7 0 1l-2 2v2.7h2.9c.2 0 .4.1.5.2.3.3.3.8 0 1.1-.1.1-.3.2-.5.2h-2.9v2.2H39c.2 0 .4.1.5.2.3.3.3.8 0 1.1-.1.1-.3.2-.5.2h-1.4v2.2h2.9c.2 0 .4.1.5.2.3.3.3.8 0 1-.2.3-.4.3-.6.3h-2.9v2.2H39c.2 0 .4.1.5.2.3.3.3.8 0 1-.1.1-.3.2-.5.2h-1.4V26h2.9c.2 0 .4.1.5.2.3.3.3.8 0 1-.1.1-.3.2-.5.2h-2.9v2.2H39c.2 0 .4.1.5.2.3.3.3.8 0 1-.1.1-.3.2-.5.2h-1.4v2.2h2.9c.2 0 .4.1.5.2.3.3.3.8 0 1-.1.1-.3.2-.5.2h-2.9v2.2H39c.2 0 .4.1.5.2.3.3.3.8 0 1-.1.1-.3.2-.5.2h-1.4v2.2h2.9c.2 0 .4.1.5.2.3.3.3.8 0 1-.1.1-.3.2-.5.2h-2.9V44l5.7.5z" fill="#c3c8ce"/><path d="M41.6 15.3h-.7c-.2 0-.4.1-.5.2-.3.3-.3.7 0 1 .1.1.3.2.5.2h.7c.2 0 .4-.1.5-.2.3-.3.3-.7 0-1-.2-.1-.3-.2-.5-.2z" fill="#c3c8ce"/></svg>