<svg xmlns="http://www.w3.org/2000/svg" viewBox="0 0 48.4 37.5"><path d="M44.5 35.9c.4 0 .8.3.8.8 0 .4-.3.8-.8.8H.8c-.4 0-.8-.3-.8-.8 0-.4.3-.8.8-.8h5.5V18c0-.4.3-.8.8-.8h3.1v-3.1c0-.4.3-.8.8-.8h2.3V5.5H11c-.4 0-.8-.3-.8-.8V.8c0-.4.3-.8.8-.8h28.9c.4 0 .8.3.8.8v16.4h.8c.4 0 .8.3.8.8v18l2.2-.1zM14.8 13.3h20.3V5.5H14.8v7.8zm-3.1 3.9H39V1.6H11.7v2.3h24.2c.4 0 .8.3.8.8v9.4c0 .4-.3.8-.8.8H11.7v2.3zm7.1 18.7v-9.4h-6.2v9.4h6.2zm21.8 0V18.8H7.8V36h3.1V25.8c0-.4.3-.8.8-.8h7.8c.4 0 .8.3.8.8V36l20.3-.1zM47.7 35.9h-.8c-.4 0-.8.3-.8.8 0 .4.3.8.8.8h.8c.4 0 .8-.3.8-.8-.1-.4-.4-.8-.8-.8z" fill="#c3c8ce"/><path d="M29.7 25c.4 0 .8.3.8.8v4.7c0 .4-.3.8-.8.8H25c-.4 0-.8-.3-.8-.8v-4.7c0-.4.3-.8.8-.8h4.7zm-.8 1.6h-3.1v3.1h3.1v-3.1zM37.5 25c.4 0 .8.3.8.8v4.7c0 .4-.3.8-.8.8h-4.7c-.4 0-.8-.3-.8-.8v-4.7c0-.4.3-.8.8-.8h4.7zm-.8 1.6h-3.1v3.1h3.1v-3.1zM23.4 7h-6.3c-.4 0-.8.3-.8.8s.3.8.8.8h6.3c.4 0 .8-.3.8-.8s-.3-.8-.8-.8zM26.6 7h-.8c-.5 0-.8.4-.8.8s.3.8.8.8h.8c.4 0 .8-.3.8-.8S27 7 26.6 7z" fill="#c3c8ce"/></svg>