<svg xmlns="http://www.w3.org/2000/svg" viewBox="0 0 70 70"><path d="M69 0c.6 0 1 .5 1 1v10.5c0 .6-.5 1-1 1h-5v25.3c0 .6-.5 1-1 1-.6 0-1-.5-1-1V12.6H44.6v1c0 .6-.5 1-1 1-.6 0-1-.5-1-1v-1h-30V62h37.8V51.4c0-.6.5-1 1-1h10.5V42c0-.6.5-1 1-1 .6 0 1 .5 1 1v9.5c0 .1 0 .2-.1.3 0 .1-.1.2-.1.2l-.1.1-11.4 11.6-.1.1H52h-.2-.1-39.1v5c0 .6-.5 1-1 1H1c-.6 0-1-.5-1-1V27.6c0-.6.5-1 1-1 .6 0 1 .5 1 1v40.3h8.5V64H7.6c-.6 0-1-.5-1-1 0-.6.5-1 1-1h2.9v-4.4H7.6c-.6 0-1-.5-1-1 0-.6.5-1 1-1h2.9V51H7.6c-.6 0-1-.5-1-1 0-.6.5-1 1-1h2.9v-4.4H7.6c-.6 0-1-.5-1-1s.5-1 1-1h2.9v-4.4H7.6c-.6 0-1-.5-1-1 0-.6.5-1 1-1h2.9v-4.4H7.6c-.6 0-1-.5-1-1 0-.6.5-1 1-1h2.9v-4.4H7.6c-.6 0-1-.5-1-1 0-.6.5-1 1-1h2.9V19H7.6c-.6 0-1-.5-1-1 0-.6.5-1 1-1h2.9v-4H2.1v10.9c0 .6-.5 1-1 1-.6 0-1-.5-1-1V1c0-.6.5-1 1-1h44c.6 0 1 .5 1 1 0 .6-.5 1-1 1H12.6v8.5h4V7.6c0-.6.5-1 1-1 .6 0 1 .5 1 1v2.9H23V7.6c0-.6.5-1 1-1 .6 0 1 .5 1 1v2.9h4.4V7.6c0-.6.5-1 1-1 .6 0 1 .5 1 1v2.9H36V7.6c0-.6.5-1 1-1s1 .5 1 1v2.9h4.4V7.6c0-.6.5-1 1-1 .6 0 1 .5 1 1v2.9H49V7.6c0-.6.5-1 1-1 .6 0 1 .5 1 1v2.9h4.4V7.6c0-.6.5-1 1-1s1 .5 1 1v2.9h4.4V7.6c0-.6.5-1 1-1 .6 0 1 .5 1 1v2.9h3.9V2.1H49.2c-.6 0-1-.5-1-1 0-.6.5-1 1-1H69zM10.5 10.5V2.1H2.1v8.5h8.4zm42 50l8-8h-8v8z" fill="#c3c8ce"/><path d="M43.5 40c-.6 0-1 .5-1 1v2.1c0 .6.5 1 1 1 .6 0 1-.5 1-1V41c.1-.5-.4-1-1-1zM43.5 34.1c-.6 0-1 .5-1 1v2.1c0 .6.5 1 1 1 .6 0 1-.5 1-1v-2.1c.1-.6-.4-1-1-1zM34.3 42.5h-2.1c-.6 0-1 .5-1 1 0 .6.5 1 1 1h2.1c.6 0 1-.5 1-1s-.5-1-1-1zM16.6 42.5h-2.1c-.6 0-1 .5-1 1 0 .6.5 1 1 1h2.1c.6 0 1-.5 1-1s-.4-1-1-1zM22.5 42.5h-2.1c-.6 0-1 .5-1 1 0 .6.5 1 1 1h2.1c.6 0 1-.5 1-1s-.4-1-1-1zM28.4 42.5h-2.1c-.6 0-1 .5-1 1 0 .6.5 1 1 1h2.1c.6 0 1-.5 1-1s-.4-1-1-1zM40.2 42.5h-2.1c-.6 0-1 .5-1 1 0 .6.5 1 1 1h2.1c.6 0 1-.5 1-1s-.5-1-1-1zM43.5 28.2c-.6 0-1 .5-1 1v2.1c0 .6.5 1 1 1 .6 0 1-.5 1-1v-2.1c.1-.5-.4-1-1-1zM43.5 16.4c-.6 0-1 .5-1 1v2.1c0 .6.5 1 1 1 .6 0 1-.5 1-1v-2.1c.1-.5-.4-1-1-1zM43.5 22.3c-.6 0-1 .5-1 1v2.1c0 .6.5 1 1 1 .6 0 1-.5 1-1v-2.1c.1-.5-.4-1-1-1z" fill="#c3c8ce"/></svg>