<svg xmlns="http://www.w3.org/2000/svg" viewBox="0 0 29.9 44.6"><path d="M22.8 13.7c.2 0 .4.1.5.2.1.1.2.3.2.5v15.8c0 .2-.1.4-.2.5-.1.1-.3.2-.5.2H7.1c-.2 0-.4-.1-.5-.2-.1-.1-.2-.3-.2-.5v-7.9c0-.2.1-.4.2-.5.1-.1.3-.2.5-.2h3.6v-.7c0-.6-.2-1.1-.6-1.5-.4-.4-.9-.6-1.5-.6H7.1c-.2 0-.4-.1-.5-.2-.1-.1-.2-.3-.2-.5v-3.6c0-.2.1-.4.2-.5.1-.1.3-.2.5-.2l15.7-.1zm-.7 9.3h-3.6v.7c0 .2-.1.4-.2.5-.3.3-.7.3-1 0-.1-.1-.2-.3-.2-.5v-2.9c0-.2.1-.4.2-.5.3-.3.7-.3 1 0 .1.1.2.3.2.5v.7h3.6V15h-6.4v.7c0 .2-.1.4-.2.5-.3.3-.7.3-1 0-.1-.1-.2-.3-.2-.5V15H7.8v2.2h.7c.9 0 1.9.4 2.5 1.1.7.7 1 1.6 1 2.5v.7h.7c.2 0 .4.1.5.2.3.3.3.7 0 1 0 .2-.2.3-.4.3h-5v6.5h6.4v-.7c0-.2.1-.4.2-.5.3-.3.7-.3 1 0 .1.1.2.3.2.5v.7H22V23zM8.6 40.3h-5c-.2 0-.4.1-.5.2-.3.3-.3.7 0 1 .1.1.3.2.5.2h5c.2 0 .4-.1.5-.2.3-.3.3-.7 0-1-.2-.2-.4-.2-.5-.2zM11.4 40.3h-.7c-.2 0-.4.1-.5.2-.3.3-.3.7 0 1 .1.1.3.2.5.2h.7c.2 0 .4-.1.5-.2.3-.3.3-.7 0-1-.1-.2-.3-.2-.5-.2z" fill="#c3c8ce"/><path d="M29.7 6c.1.1.2.3.2.5v37.4c0 .2-.1.4-.2.5-.1.1-.3.2-.5.2H.7c-.2 0-.4-.1-.5-.2-.1-.2-.2-.4-.2-.6V.7C0 .5.1.3.2.2.3.1.5 0 .7 0h22.8c.2 0 .4.1.5.2L29.7 6zm-5.5-.2h3.3l-3.3-3.3v3.3zm4.3 37.3V7.2h-5c-.2 0-.4-.1-.5-.2-.1-.1-.2-.3-.2-.5v-5H1.4v41.7h27.1z" fill="#c3c8ce"/></svg>