<svg xmlns="http://www.w3.org/2000/svg" viewBox="0 0 71.9 74.3"><path d="M71.9 55.1c0 .6-.2 1.3-1.2 1.3H54.6V73c0 .7-.6 1.3-1.3 1.3H18.6c-.7 0-1.3-.6-1.3-1.3V56.4h-16c-.7 0-1.3-.6-1.3-1.3V37.2c0-.7.6-1.3 1.3-1.3h16.1V20.5H1.3c-.7 0-1.3-.6-1.3-1.3V1.3C0 .5.4 0 1.3 0H36c.7 0 1.3.6 1.3 1.3V18h16c.7 0 1.3.6 1.3 1.3V36h16.1c.7 0 1.3.6 1.3 1.3l-.1 17.8zm-2.4-16.8h-6.1c-.9 3.3-3.2 6-6.4 7.4-1.4.6-2.9.9-4.4.9-2.3 0-4.5-.7-6.4-2-4.6-3.1-7.8-2.3-9-1.7v10.9h32.1c-.4-1.5-1.1-3.8-3-4.9-1.4-.8-3.2-.8-5.5.1-9.8 4.1-16.1 1-16.4.8-.6-.4-.9-1.1-.6-1.7.4-.6 1.1-.8 1.7-.6.1 0 5.6 2.7 14.3-.9 3-1.3 5.6-1.3 7.7 0 .7.5 1.4 1.1 1.9 1.8l.1-10.1zm-19.8.1c.6.6 1.2.9 2 1.1 1.2.1 2.3-.3 3.2-1.1h-5.2zm-3.1-.1h-9.4v2c2-.6 5.7-.8 10.3 2.3 2.5 1.8 5.7 2.1 8.4.9 2.3-1 3.9-2.8 4.8-5.1h-2.2c-2.2 2.3-4.4 3.5-6.5 3.5-.3 0-.6 0-.8-.1-2.4-.3-3.9-2.3-4.6-3.5zM22.3 18c-.6-.6-1.2-.9-2-1.1-1.2-.1-2.3.3-3.2 1.1h5.2zm3.1.1h9.4v-2c-2 .6-5.7.8-10.3-2.3-2.5-1.8-5.7-2.1-8.5-.9-2.3 1-3.9 2.8-4.8 5.1h2.2c2.5-2.6 5-3.8 7.3-3.4 2.5.3 4.1 2.3 4.7 3.5zM2.4 7.7V18h6.1c.9-3.3 3.2-6 6.4-7.4 3.5-1.5 7.6-1.1 10.8 1.1 4.6 3.1 7.8 2.3 9 1.7V2.6h-32c.4 1.5 1.1 3.8 3 4.9 1.3.8 3.2.7 5.4-.2 9.8-4.1 16.1-1 16.4-.8.6.3.8 1.1.5 1.6-.3.6-1 .8-1.6.6-.1 0-5.6-2.7-14.3.9-1.3.6-2.7.9-4.1.9-1.2 0-2.5-.3-3.5-1-.8-.5-1.4-1.1-2-1.8h-.1zm41 12.7H19.8v2c2-.6 5.7-.8 10.3 2.3 2.5 1.8 5.7 2.1 8.4.9 2.4-1 4-2.8 4.9-5.2zM19.9 35.9H52c-.4-1.5-1.1-3.8-3-4.9-1.4-.8-3.2-.8-5.5.1-9.8 4.1-16.1 1-16.4.8-.6-.4-.8-1.1-.6-1.7.4-.6 1.1-.8 1.7-.6.1 0 5.6 2.7 14.3-.9 3-1.3 5.6-1.3 7.7 0 .7.5 1.4 1.1 1.9 1.8V20.4H46c-.9 3.3-3.2 6-6.4 7.4-1.4.6-2.9.9-4.4.9-2.3 0-4.6-.7-6.3-2-4.6-3.1-7.8-2.3-9-1.7v2.5c1.4-.3 2.9-.1 4.1.6.6.3.8 1.1.4 1.6-.4.6-1.1.8-1.7.5-1-.4-2-.4-3-.1l.2 5.8zm14.6 2.4H2.4v5.8c1 .3 2 .3 3-.1.6-.3 1.3-.1 1.6.4.4.6.1 1.3-.4 1.7-.9.4-1.9.6-2.9.6-.4 0-.8-.1-1.3-.1v2.5c1.2.5 4.4 1.4 9-1.7 3.2-2.2 7.2-2.5 10.8-1.1 3.2 1.4 5.5 4.1 6.4 7.4h6.1V43.6c-.6.7-1.2 1.3-2 1.8-1.1.6-2.3.9-3.5.9-1.4 0-2.8-.4-4.1-.9-8.7-3.7-14.2-.9-14.3-.9-.6.4-1.3.1-1.6-.5-.4-.6-.1-1.3.5-1.7.3-.1 6.6-3.2 16.4.8 2.3.9 4.1 1 5.5.1 1.8-1.1 2.6-3.4 3-4.9h-.1zm-32 15.5h23.6c-.8-2.3-2.5-4.2-4.8-5.1-2.8-1.1-6-.8-8.4.9-4.6 3.1-8.3 2.9-10.3 2.3l-.1 1.9zm33 18c-.6-.6-1.2-.9-2-1.1-1.2-.1-2.3.3-3.2 1.1h5.2zm16.6-15.5h-32c.4 1.5 1.1 3.8 3 4.9 1.4.8 3.2.8 5.5-.1 9.8-4.1 16.1-1 16.4-.8.6.4.8 1.1.6 1.7-.4.6-1.1.8-1.7.6-.1 0-5.6-2.7-14.3.9-1.3.6-2.7.9-4.1.9-1.3.1-2.5-.3-3.5-.9-.7-.5-1.4-1.1-1.9-1.8V72h2c.9-3.3 3.2-6 6.4-7.4 3.5-1.5 7.6-1.1 10.8 1.1 5.8 3.9 9.4 1.5 9.5 1.4.6-.4 1.3-.3 1.7.3.4.6.3 1.3-.3 1.7-.2.1-4.9 3.5-12.3-1.3-2.5-1.8-5.7-2.1-8.4-.9-2.3 1-3.9 2.8-4.8 5.1h2.2c2.5-2.6 5-3.8 7.3-3.4 2.5.4 4 2.3 4.6 3.4H52v-7.2c-.4.1-.8.1-1.3.1-1 .1-2-.2-2.9-.6-.6-.3-.8-1.1-.4-1.6.4-.6 1.1-.8 1.7-.5 1 .4 2 .4 3 .1v-6z" fill="#c3c8ce"/></svg>