<svg xmlns="http://www.w3.org/2000/svg" viewBox="0 0 38.4 38.7"><path d="M37.8 0c.2 0 .3.1.4.2.1.1.2.3.2.4v37.5c0 .3-.2.5-.4.6-.2.1-.5 0-.7-.1L.2 1.1C0 .9 0 .5.2.2.3.1.5 0 .6 0h37.2zm-.6 34.4h-.6c-.2 0-.3-.1-.4-.2-.2-.2-.2-.6 0-.9.1-.1.3-.2.4-.2h.6v-1.9H36c-.2 0-.3-.1-.4-.2-.2-.2-.2-.6 0-.9.1-.1.3-.2.4-.2h1.2V28h-.6c-.2 0-.3-.1-.4-.2-.2-.2-.2-.6 0-.9.1-.1.3-.2.4-.2h.6V25H36c-.2 0-.3-.1-.4-.2-.2-.2-.2-.6 0-.9.1-.1.3-.2.4-.2h1.2v-1.9h-.6c-.2 0-.3-.1-.4-.2-.2-.2-.2-.6 0-.9.1-.1.3-.2.4-.2h.6v-1.9H36c-.2 0-.3-.1-.4-.2-.2-.2-.2-.6 0-.9.1-.1.3-.2.4-.2h1.2v-1.9h-.6c-.2 0-.3-.1-.4-.2-.2-.2-.2-.6 0-.9.1-.1.3-.2.4-.2h.6v-1.9H36c-.2 0-.3-.1-.4-.2-.2-.2-.2-.6 0-.9.1-.1.3-.2.4-.2h1.2V9.4h-.6c-.2 0-.3-.1-.4-.2-.2-.2-.2-.6 0-.9.1-.1.3-.2.4-.2h.6V6.3H36c-.2 0-.3-.1-.4-.2-.2-.2-.2-.6 0-.9 0-.1.2-.2.3-.2h1.2V1.3h-3.7v1.3c0 .2-.1.3-.2.4-.2.2-.6.2-.9 0-.1-.1-.2-.3-.2-.4V1.3h-1.9v.6c0 .2-.1.3-.2.4-.2.2-.6.2-.9 0-.1-.1-.2-.3-.2-.5v-.5H27v1.3c0 .2-.1.3-.2.4-.2.2-.6.2-.9 0 .2-.2.1-.3.1-.5V1.3h-1.9v.6c0 .2-.1.3-.2.4-.2.2-.6.2-.9 0 0-.1-.1-.3-.1-.4v-.6H21v1.3c0 .2-.1.3-.2.4-.2.2-.6.2-.9 0-.1-.1-.2-.3-.2-.4V1.3H18v.6c0 .2-.1.3-.2.4-.2.2-.6.2-.9 0-.1-.1-.2-.3-.2-.4v-.6h-1.9v1.3c0 .2-.1.3-.2.4-.2.2-.6.2-.9 0-.1-.1-.2-.3-.2-.5V1.3h-1.9v.6c0 .2-.1.3-.2.4-.2.2-.6.2-.9 0-.1-.1-.2-.3-.2-.5v-.5H8.7v1.3c0 .2-.1.3-.2.4-.2.2-.6.2-.9 0-.1-.2-.2-.3-.2-.5V1.3H5.6v.6c0 .2-.1.3-.2.4-.2.2-.6.2-.9 0-.1-.1-.2-.3-.2-.4v-.6H2.1l35.1 35.4v-2.3z" fill="#c3c8ce"/><path d="M33.5 20.6c0 .6-.2 1.2-.5 1.7s-.8.9-1.4 1.1c-1.2.5-2.5.2-3.4-.7L15.8 10.3c-.9-.9-1.2-2.2-.7-3.4.2-.6.6-1.1 1.1-1.4.5-.3 1.1-.5 1.7-.5h12.4c.8 0 1.6.3 2.2.9.6.6.9 1.4.9 2.2v12.5zM32.2 8.1c0-.5-.2-1-.5-1.3-.3-.4-.8-.5-1.3-.5H17.9c-.4 0-.7.1-1 .3-.3.2-.5.5-.7.8-.3.7-.1 1.5.4 2L29 22c.5.5 1.3.7 2 .4.3-.1.6-.4.8-.7.2-.3.3-.7.3-1l.1-12.6zM34.1 30h-.6c-.2 0-.3.1-.4.2-.2.2-.2.6 0 .9.1.1.3.2.4.2h.6c.2 0 .3-.1.4-.2.2-.2.2-.6 0-.9-.1-.1-.3-.2-.4-.2zM28.3 32c.6.6.9 1.4.9 2.2 0 .8-.3 1.6-.9 2.2l-.9.9c-.6.6-1.4.9-2.2.9-.8 0-1.6-.3-2.2-.9L2.5 16.5c-.1-.1-.1-.2-.2-.3L.6 10c-.1-.2 0-.5.2-.6.2-.2.4-.2.6-.2L7.5 11c.1 0 .2.1.3.2L28.3 32zm-2.1-.5l-.4-.4-3.5 3.5.4.4 3.5-3.5zM6.1 11.9l-1.4-.4s0 .1-.1.1l-1.8 1.8s-.1 0-.1.1l.4 1.4 3-3zm-4-1.1l.4 1.3.9-1-1.3-.3zm13.1 16.7l6.1 6.2 3.5-3.5L7.3 12.5 3.8 16l11.4 11.5zm12.3 8c.7-.7.7-1.9 0-2.7l-.5-.4-3.5 3.5.4.4c.7.7 1.9.7 2.6 0l1-.8z" fill="#c3c8ce"/><path d="M7.1 14.9c-.2-.2-.4-.2-.7-.1-.3.1-.4.3-.4.6 0 .2.1.3.2.4l13.2 13.4c.2.2.6.2.9 0 .2-.2.2-.6 0-.9L7.1 14.9zM21.8 31.5c.2.2.4.2.7.1.2-.1.4-.3.4-.6 0-.2-.1-.3-.2-.4l-.4-.4c-.3-.2-.5-.2-.8-.2-.2.1-.4.3-.4.6 0 .2.1.3.2.4l.5.5z" fill="#c3c8ce"/></svg>