<svg xmlns="http://www.w3.org/2000/svg" viewBox="0 0 68.7 80"><path d="M68.7 12.7V80H1.3V40h2.3v6l12.2-12.2-8.3-8.3-3.8 3.8v.7H1.3V12.7H45V15h-7l-3.8 3.8 8.3 8.3 10-10c-.7-.6-1.6-1-2.5-1v-2.3c2.1 0 3.8-1.7 3.8-3.8h2.3c0 2.1 1.7 3.8 3.8 3.8v-1.2h8.8zM53.6 15c.5.4 1 .9 1.4 1.4.4-.5.9-1 1.4-1.4-.5-.4-1-.9-1.4-1.4-.4.5-.9 1-1.4 1.4zm-38.9 0h-11v11l11-11zm2.8 17.2L34.7 15H18l-8.8 8.8 8.3 8.4zm-3.3 6.6l8.3 8.3 18.3-18.3-8.3-8.3-18.3 18.3zm0 20l8.3 8.3 23.3-23.3-8.3-8.3-23.3 23.3zM3.7 66l17.2-17.2-8.3-8.3-8.8 8.8L3.7 66zM12 77.7l8.8-8.8-8.3-8.3-8.8 8.8v8.3H12zm20 0l13.8-13.8-8.3-8.3-22.2 22.1H32zm20 0l8.8-8.8-8.3-8.3-17.2 17.1H52zm14.3-11l-11 11h11v-11zm0-20L54.2 58.8l8.3 8.3 3.8-3.8V46.7zm0-20L39.2 53.8l8.3 8.3 18.8-18.8V26.7zm0-3.4V15H60v1.2c-2.1 0-3.8 1.7-3.8 3.8h-2.3c0-.3 0-.5-.1-.8L39.2 33.8l8.3 8.3 18.8-18.8zM61.2 0c0 2.1 1.7 3.8 3.8 3.8v2.3c-2.1 0-3.8 1.7-3.8 3.8h-2.3c0-2.1-1.7-3.8-3.8-3.8V3.8c2.1 0 3.8-1.7 3.8-3.8h2.3zm.2 5c-.5-.4-1-.9-1.4-1.4-.4.5-.9 1-1.4 1.4.5.4 1 .9 1.4 1.4.4-.5.9-1 1.4-1.4z" fill="#c3c8ce"/><path d="M6.2 30c0 2.1 1.7 3.8 3.8 3.8v2.3c-2.1 0-3.8 1.7-3.8 3.8H3.8c0-2.1-1.7-3.8-3.8-3.8v-2.3c2.1 0 3.8-1.7 3.8-3.8h2.4zm.2 5c-.5-.4-1-.9-1.4-1.4-.4.5-.9 1-1.4 1.4.5.4 1 .9 1.4 1.4.4-.5.9-1 1.4-1.4z" fill="#c3c8ce"/></svg>