<svg xmlns="http://www.w3.org/2000/svg" viewBox="0 0 65.6 65.6"><path d="M10 35.1l2.2-.2.3 2.1-2.1.4c-.3-.8-.4-1.5-.4-2.3zM53.9 23.8l-2 .9c-.3-.6-.6-1.3-.9-1.9l1.9-1.1c.4.6.7 1.4 1 2.1zM14.7 22.7c-.3.6-.7 1.2-.9 1.9l-2-.9c.3-.7.7-1.4 1-2.1l1.9 1.1zM10.9 39.6L13 39c.2.7.4 1.3.7 2l-2 .9c-.3-.8-.6-1.5-.8-2.3zM10 30.4l2.2.2c-.1.7-.1 1.4-.1 2.1H9.9c-.1-.7 0-1.5.1-2.3zM13 26.6c-.2.7-.4 1.3-.5 2l-2.1-.4c.2-.8.4-1.5.6-2.3l2 .7zM33.8 53.6l.1 2.2h-2.3l.1-2.2h2.1zM48.6 19.3l1.7-1.4c.5.6 1 1.2 1.4 1.8L49.9 21c-.4-.6-.9-1.2-1.3-1.7zM29.3 55.5c-.8-.1-1.5-.3-2.3-.5l.6-2.1c.7.2 1.4.3 2.1.4l-.4 2.2zM40 52.3c.7-.2 1.3-.5 1.9-.8l1 2-2.1.9-.8-2.1zM42 14.2l1-2c.7.3 1.4.7 2 1.1l-1.2 1.9c-.6-.4-1.2-.7-1.8-1zM46.8 51c-.6.5-1.3.9-1.9 1.3l-1.2-1.9c.6-.4 1.2-.8 1.7-1.2l1.4 1.8zM18.5 47.8L17 49.4c-.6-.5-1.1-1.1-1.6-1.7l1.7-1.4c.4.5.8 1.1 1.4 1.5zM22.7 12.2l1 2c-.6.3-1.2.6-1.8 1l-1.2-1.9c.6-.4 1.3-.8 2-1.1zM46.9 14.7l1.8 1.5-1.5 1.6c-.5-.5-1-.9-1.6-1.4l1.3-1.7zM36.2 55.5l-.3-2.2c.7-.1 1.4-.2 2.1-.4l.5 2.1c-.8.3-1.5.4-2.3.5zM24.8 54.3l-2.1-.9 1-2c.6.3 1.3.6 1.9.8l-.8 2.1zM47.1 47.9l1.5-1.5 1.7 1.4c-.5.6-1 1.1-1.6 1.7l-1.6-1.6zM21.8 50.4l-1.2 1.9c-.7-.4-1.3-.9-1.9-1.3l1.3-1.7c.6.3 1.2.7 1.8 1.1zM49.8 44.7c.4-.6.8-1.2 1.1-1.8l1.9 1.1c-.4.7-.8 1.3-1.2 2l-1.8-1.3zM12.7 43.9l1.9-1.1c.3.6.7 1.2 1.1 1.8l-1.8 1.2c-.4-.5-.8-1.2-1.2-1.9zM29.4 10.1c.8-.1 1.5-.2 2.3-.2l.1 2.2c-.7 0-1.4.1-2.1.2l-.3-2.2zM17.1 19.3c-.5.5-.9 1.1-1.3 1.7L14 19.7c.4-.6.9-1.3 1.4-1.8l1.7 1.4zM33.9 12.1l.1-2.2c.8 0 1.6.1 2.3.2l-.3 2.2c-.7-.1-1.4-.2-2.1-.2zM24.9 11.3c.7-.3 1.5-.5 2.2-.7l.5 2.1c-.7.2-1.3.4-2 .6l-.7-2zM20.1 16.4c-.6.4-1.1.9-1.6 1.4L17 16.1l1.8-1.5 1.3 1.8zM38 12.7l.5-2.1c.8.2 1.5.4 2.2.7l-.7 2c-.6-.2-1.3-.4-2-.6zM55.3 28.2l-2.1.4c-.1-.7-.3-1.4-.5-2l2.1-.7c.2.8.4 1.5.5 2.3zM55.8 32.8h-.7l-1.5-.1c0-.7 0-1.4-.1-2.1l2.2-.2c0 .9.1 1.6.1 2.4zM51.9 41.1c.3-.6.5-1.3.7-2l2.1.7c-.2.7-.5 1.5-.8 2.2l-2-.9zM53.2 37.1c.1-.7.3-1.4.3-2.1l2.2.2c-.1.8-.2 1.5-.4 2.3l-2.1-.4zM2.2 40.3C3.7 48.5 9 55.7 16.3 59.8l.7-2.2c.2-.6.8-.9 1.4-.7.2.1.3.1.4.3l5.5 5.5c.4.4.4 1.1 0 1.5-.2.2-.4.3-.6.3L16 65.6c-.4.1-.8-.1-1-.4-.2-.3-.3-.7-.2-1l.7-2.2C7.5 57.6 1.7 49.7 0 40.7l2.2-.4zm19 22.4L18.6 60l-1.1 3.2 3.7-.5zM8 17.1c.6.2.9.8.7 1.4-.1.2-.1.3-.3.4L3 24.3c-.3.3-.7.4-1.1.3-.4-.1-.7-.5-.7-.9L0 16.1c-.1-.6.3-1.2.9-1.2h.5l2.2.7C8 7.5 15.9 1.7 25 0l.4 2.2C17.1 3.7 9.9 9 5.8 16.3l2.2.8zm-5 4.1l2.7-2.7-3.2-1.1.5 3.8zM48.6 8c-.2.6-.8.9-1.4.7-.2-.1-.3-.1-.4-.3L41.3 3c-.4-.4-.4-1.1 0-1.5.2-.2.4-.3.6-.3L49.6 0c.4-.1.8.1 1 .4.2.3.3.7.2 1L50 3.7C58.1 8 63.9 15.9 65.6 25l-2.2.4c-1.5-8.3-6.8-15.5-14.1-19.6L48.6 8zm-4.2-5l2.7 2.7 1.1-3.2-3.8.5zM62 50c-4.4 8.1-12.2 13.9-21.3 15.6l-.4-2.1c8.3-1.6 15.5-6.8 19.6-14.1l-2.2-.7c-.6-.2-.9-.8-.7-1.4.1-.2.1-.3.3-.4l5.5-5.5c.3-.3.7-.4 1.1-.3.4.1.7.5.7.9l1.1 7.7c.1.4-.1.8-.4 1-.3.2-.7.3-1 .2L62 50zm.7-5.6L60 47.1l3.2 1.1-.5-3.8zM26.2 40.5c0 .6-.5 1.1-1.1 1.1h-4.4c-.6 0-1.1-.5-1.1-1.1V24.1c0-.6.5-1.1 1.1-1.1h4.4c.6 0 1.1.5 1.1 1.1v16.4zm-2.1-15.3h-2.2v14.2h2.2V25.2zM35 23c.6 0 1.1.5 1.1 1.1v8.8c0 .6-.5 1.1-1.1 1.1h-4.4c-.6 0-1.1-.5-1.1-1.1v-8.8c0-.6.5-1.1 1.1-1.1H35zm-3.3 8.7h2.2v-6.6h-2.2v6.6zM39.4 24.1c0-.6.5-1.1 1.1-1.1h4.4c.6 0 1.1.5 1.1 1.1v15.3c0 .6-.5 1.1-1.1 1.1h-4.4c-.6 0-1.1-.5-1.1-1.1V24.1zm2.2 14.2h2.2V25.2h-2.2v13.1z" fill="#c3c8ce"/></svg>