<svg xmlns="http://www.w3.org/2000/svg" viewBox="0 0 70 70"><path d="M2.3 45.5c-1.3 0-2.3-1-2.3-2.3V26.8c0-1.3 1-2.3 2.3-2.3h23.3c1.3 0 2.3 1 2.3 2.3v16.3c0 1.3-1 2.3-2.3 2.3H2.3zm0-2.3h23.3V26.9H2.3v16.3zM2.3 70C1 70 0 69 0 67.7V51.3C0 50 1 49 2.3 49h9.3c1.3 0 2.3 1 2.3 2.3v16.3c0 1.3-1 2.3-2.3 2.3H2.3zm0-2.3h9.3V51.4H2.3v16.3z" fill="#c3c8ce"/><path d="M67.7 0C69 0 70 1 70 2.3v65.3c0 1.3-1 2.3-2.3 2.3H19.8c-1.3 0-2.3-1-2.3-2.3V51.3c0-1.3 1-2.3 2.3-2.3h16.3c0-.7-.1-1.3-.1-1.9v-1.6h-2.2c-1.3 0-2.3-1-2.3-2.3V26.8c0-1.3 1-2.3 2.3-2.3h2.3c-.5-1.2-1-2.4-1.7-3.5H2.3C1 21 0 20 0 18.7V2.3C0 1 1 0 2.3 0h65.4zM2.3 18.7h30.6c-1.4-1.8-3-3.4-4.9-4.7l-.4-.2c-2.3-1.5-4.9-3.2-5.6-6.5-.2-1.6-.2-3.3-.2-4.9H2.3v16.3zm31.5 24.5h2.4c.1-.9.2-1.8.3-2.6.1-.8.3-1.6.5-2.4.5-1.7.7-3.5.7-5.3 0-2-.3-4-.9-6h-3.1l.1 16.3zm-14 24.5h23.1C39.2 63 37 57.3 36.4 51.4H19.8v16.3zM67.7 2.3H24.2c0 1.5 0 3 .1 4.5.5 2.3 2.3 3.6 4.5 5l.4.2c2.8 1.9 5.1 4.3 6.9 7.2 2.5 4.1 3.9 8.8 4 13.5 0 2-.3 4-.8 5.9-.2.8-.3 1.5-.5 2.3-.2 1.1-.3 2.3-.4 3.4-.1.9-.1 1.8-.1 2.7 0 1 .1 2 .2 3 .4 6.5 3.1 12.7 7.5 17.6h21.7V2.3z" fill="#c3c8ce"/><path d="M26.7 6.6c.4 1.2 1.5 2 3.5 3.3l.4.3c3.1 2 5.7 4.7 7.6 7.9 1.3 2.1 2.3 4.3 3 6.7.2.6.9.9 1.5.7.6-.2.9-.8.7-1.4-.8-2.5-1.9-5-3.3-7.2-2.1-3.4-4.9-6.4-8.3-8.6l-.4-.3c-.9-.5-1.7-1.1-2.5-1.9v-.2c0-.6-.6-1.1-1.2-1.1s-1.1.6-1.1 1.2v.5c0-.1 0 0 .1.1zM42.4 32.7c0 2.2-.3 4.4-.9 6.5-.2.7-.3 1.4-.4 2.1-.2 1.1-.3 2.1-.3 3.2-.1.8-.1 1.6-.1 2.5 0 .9.1 1.8.2 2.8.4 5.5 2.4 10.7 5.8 15.1.4.5 1.1.6 1.6.2.2-.1.3-.3.4-.5.1-.4.1-.8-.2-1.2-3.1-4-4.9-8.8-5.3-13.8-.1-.9-.2-1.7-.2-2.6 0-.8 0-1.5.1-2.3 0-1 .2-2 .3-2.9.1-.7.3-1.4.4-2.1.6-2.3.9-4.6.9-7 0-.6-.5-1.1-1.2-1.1-.6 0-1.1.5-1.1 1.1z" fill="#c3c8ce"/></svg>