<svg xmlns="http://www.w3.org/2000/svg" viewBox="0 0 80 58.5"><path d="M75.9 22.1h-7.4c-.6 0-1.2.5-1.2 1.2 0 .6.5 1.2 1.2 1.2h7.4c1 0 1.8.8 1.8 1.8v2.9h-3.9c-.6 0-1.2.5-1.2 1.2 0 .6.5 1.2 1.2 1.2h3.9v12.6l-6.1 1.6H47.1c-.6 0-1.2.5-1.2 1.2 0 .6.5 1.2 1.2 1.2h24.4l6.2 2.7v3.6c0 1-.8 1.8-1.8 1.8H19.2c-1 0-1.8-.8-1.8-1.8V43.6H31c.6 0 1.2-.5 1.2-1.2s-.5-1.2-1.2-1.2H17.4v-1.3c0-.6-.5-1.2-1.2-1.2-.6 0-1.2.5-1.2 1.2v14.4c0 2.3 1.9 4.1 4.1 4.1h56.6c2.3 0 4.1-1.9 4.1-4.1V50c0-.5-.3-.9-.7-1.1l-4-1.7 3.9-1c.6-.2 1-.7 1-1.2V26.2c0-2.2-1.9-4.1-4.1-4.1z" fill="#c3c8ce"/><path d="M64.9 32.3c0 2.3-1.9 4.1-4.1 4.1H4.1c-2.3 0-4.1-1.9-4.1-4.1V4.1C0 1.9 1.9 0 4.1 0h17.3c.6 0 1.2.5 1.2 1.1s-.5 1.2-1.1 1.2H4.1c-.4 0-.8.2-1.1.5 4.5.7 8.6 3 12.5 5.2 1.7.9 3.3 1.8 5 2.6 3 1.4 6.1 2.3 9 2.5 1.4.1 3.9.1 5.7-1.4 1.2-1.1 1.6-2.5 1.2-4.4-.4-1.8-1.5-3.6-2.5-4.9h-7.7c-.6 0-1.2-.5-1.2-1.2S25.5 0 26.1 0h34.7c2.3 0 4.1 1.9 4.1 4.1v28.2zM62.6 4.1c0-1-.8-1.8-1.8-1.8H46.9c.6 1.4 1.1 2.8 1.4 4.1.9 3.9.5 9.2-3.3 12.6-1.9 1.7-4.5 2.7-7.5 3-2.5.2-4.9 0-7.3-.3h-.4c-7.8-.7-16.2-1.3-24.5-.1-1 .1-2 .3-3 .5v5.4c2.5-.9 5.3-1.5 8.3-1.7 10.4-.7 20.9 3.1 31 2.1 6.5-.6 12.7-3.2 17.4-7.3 1.3-1.1 2.5-2.4 3.5-3.7V4.1zM14.4 10C10.5 7.8 6.6 5.7 2.3 5v14.6c.9-.2 1.8-.3 2.6-.4 8.6-1.2 17.1-.6 25.1.2h.4c2.3.2 4.6.5 6.9.3 1.8-.2 4.3-.7 6.2-2.4C46 15.1 47 11 46 7c-.3-1.5-.9-3-1.7-4.6h-7.7c2.9 4.5 2.9 8.5 0 11-1.5 1.4-3.7 2.1-6.2 2.1h-1.2c-3.2-.3-6.5-1.2-9.8-2.7-1.6-1-3.4-1.9-5-2.8zM2.3 32.3c0 1 .8 1.8 1.8 1.8h56.6c1 0 1.8-.8 1.8-1.8V20.5c-.6.7-1.3 1.3-2 1.9-5.1 4.4-11.7 7.2-18.7 7.8-10.6 1-20.8-2.8-31-2.1-3.1.2-6 .9-8.5 1.9v2.3z" fill="#c3c8ce"/></svg>