<?xml version="1.0" encoding="utf-8"?>
<!-- Generator: Adobe Illustrator 22.0.0, SVG Export Plug-In . SVG Version: 6.00 Build 0)  -->
<svg version="1.1" id="Слой_1" xmlns="http://www.w3.org/2000/svg" xmlns:xlink="http://www.w3.org/1999/xlink" x="0px" y="0px"
	 viewBox="0 0 14.9 15" style="enable-background:new 0 0 14.9 15;" xml:space="preserve">
<path style="fill:#FFFFFF;stroke:#84BC30;" d="M7.5,0.5L7.5,0.5c3.9,0,7,3.1,7,7v0.1c0,3.9-3.1,7-7,7h0c-3.9,0-7-3.1-7-7V7.5
	C0.5,3.6,3.6,0.5,7.5,0.5z"/>
<path style="fill:#84BC30;stroke:#84BC30;" d="M7.5,4.5L7.5,4.5c1.6,0,3,1.3,3,3v0c0,1.6-1.3,3-3,3h0c-1.6,0-3-1.3-3-3v0
	C4.5,5.8,5.8,4.5,7.5,4.5z"/>
</svg>
