<svg xmlns="http://www.w3.org/2000/svg" viewBox="0 0 25.6 25.6"><path d="M18.6 0H7C3.1 0 0 3.1 0 7v11.6c0 3.9 3.1 7 7 7h11.6c3.9 0 7-3.1 7-7V7c0-3.9-3.1-7-7-7z" fill="#7d3daf"/><path d="M20.9 8.3c.5 2.3.5 4.7 0 7-.4 1.7-2.3 3.4-4 3.8-1.8.3-3.6.5-5.3.4l-1.9 1.9c-.3.3-.8.3-1.1 0-.1-.1-.2-.3-.2-.5V19c-1.6-.5-3.3-2.2-3.7-3.7-.5-2.3-.5-4.7 0-7 .4-1.7 2.3-3.5 4-3.9 2.7-.5 5.5-.5 8.3 0 1.7.4 3.5 2.2 3.9 3.9zm-1.5.3c-.3-1.1-1.7-2.4-2.8-2.7-2.5-.5-5.1-.5-7.7 0-1 .3-2.4 1.6-2.7 2.7-.5 2.1-.5 4.2 0 6.3.3 1.1 1.7 2.4 2.8 2.7.1 0 .1.1.1.1v3.1c0 .1.1.2.2.2 0 0 .1 0 .1-.1l1.5-1.5 1.4-1.4h.1c1.5 0 2.9-.1 4.4-.4 1.1-.2 2.5-1.6 2.8-2.7.3-2.1.3-4.2-.2-6.3z" fill="#fff"/><path d="M15.2 16.3c-.2-.1-.3-.1-.5-.1-1.6-.6-3-1.5-4.2-2.8-.6-.7-1.2-1.6-1.6-2.4-.2-.4-.4-.8-.6-1.3 0-.4.2-.8.5-1.1.2-.3.5-.5.8-.7.3-.1.5-.1.7.2.4.5.8 1 1.1 1.5.2.3.1.7-.2 1-.1.1-.2.1-.2.2l-.2.2c-.1.1-.1.3 0 .4.4 1.1 1.1 2 2.2 2.5.2.1.4.2.6.1.3 0 .5-.4.7-.6.2-.2.5-.2.8 0 .3.2.5.3.8.5.2.2.5.3.7.5.2.2.3.4.2.7-.2.5-.5.9-1 1.1-.3 0-.4.1-.6.1.2 0-.1-.1 0 0zM12.8 7.4c2.1.1 3.7 1.4 4.1 3.5.1.3.1.7.1 1.1 0 .1-.1.3-.2.3-.2 0-.2-.1-.3-.3 0-.3 0-.6-.1-.9-.2-1.5-1.4-2.8-3-3.1-.2 0-.5-.1-.7-.1-.1 0-.3 0-.4-.2 0-.2.1-.3.2-.3h.3s2.1 0 0 0z" fill="#fff"/><path d="M15.9 11.4v.1c-.1.2-.4.2-.4 0v-.2c0-.4-.1-.9-.3-1.2-.2-.4-.6-.7-1-.9-.3-.1-.5-.2-.8-.2H13c-.1 0-.2-.1-.2-.3 0-.1.1-.2.2-.2.5 0 .9.1 1.3.4.9.5 1.3 1.2 1.5 2.1v.1c.1.1.1.2.1.3 0-.1 0 .1 0 0z" fill="#fff"/><path d="M14.7 11.4c-.2 0-.3-.1-.3-.3v-.3c0-.2-.2-.4-.3-.5-.1-.1-.2-.1-.3-.1-.1 0-.3 0-.4-.1-.1 0-.2-.1-.2-.3 0-.1.1-.2.3-.2.8.1 1.4.5 1.4 1.4v.2l-.2.2s-.2 0 0 0z" fill="#fff"/></svg>