<?xml version="1.0" encoding="utf-8"?>
<!-- Generator: Adobe Illustrator 21.0.2, SVG Export Plug-In . SVG Version: 6.00 Build 0)  -->
<svg version="1.1" id="Capa_1" xmlns="http://www.w3.org/2000/svg" xmlns:xlink="http://www.w3.org/1999/xlink" x="0px" y="0px"
	 viewBox="0 0 54 54" enable-background="new 0 0 54 54" xml:space="preserve">
<g>
	<g>
		<circle id="XMLID_11_" fill="#4D76A1" cx="27" cy="27" r="27"/>
	</g>
	<path fill="#FFFFFF" d="M26,38.8h2.1c0,0,0.6-0.1,1-0.4c0.3-0.3,0.3-0.9,0.3-0.9s0-2.8,1.3-3.3c1.3-0.4,3,2.7,4.7,4
		c1.3,0.9,2.4,0.7,2.4,0.7l4.7-0.1c0,0,2.5-0.2,1.3-2.1c-0.1-0.2-0.7-1.4-3.5-4.1c-3-2.8-2.6-2.3,1-7.1c2.2-2.9,3-4.7,2.8-5.4
		c-0.3-0.7-1.9-0.5-1.9-0.5l-5.3,0c0,0-0.4-0.1-0.7,0.1c-0.3,0.2-0.5,0.6-0.5,0.6s-0.8,2.2-2,4.2c-2.4,4-3.3,4.2-3.7,4
		c-0.9-0.6-0.7-2.3-0.7-3.6c0-3.9,0.6-5.5-1.2-6c-0.6-0.1-1-0.2-2.5-0.2c-1.9,0-3.5,0-4.4,0.5c-0.6,0.3-1.1,1-0.8,1
		c0.4,0,1.2,0.2,1.6,0.8c0.5,0.7,0.5,2.4,0.5,2.4s0.3,4.6-0.7,5.2c-0.7,0.4-1.7-0.4-3.8-4.1c-1.1-1.9-1.9-3.9-1.9-3.9
		s-0.2-0.4-0.4-0.6c-0.3-0.3-0.8-0.3-0.8-0.3l-5.1,0c0,0-0.8,0-1,0.4c-0.2,0.3,0,0.9,0,0.9s4,9.3,8.5,14C21.3,39.1,26,38.8,26,38.8
		L26,38.8z"/>
</g>
</svg>
