<svg xmlns="http://www.w3.org/2000/svg" viewBox="0 0 25.6 25.6"><path d="M18.6 0H7C3.1 0 0 3.1 0 7v11.6c0 3.9 3.1 7 7 7h11.6c3.9 0 7-3.1 7-7V7c0-3.9-3.1-7-7-7z" fill="#62d03b"/><path d="M3.8 21.8l1.3-4.5c-.8-1.4-1.2-2.9-1.2-4.5 0-4.9 4-8.9 8.9-8.9s8.9 4 8.9 8.9-4 9-8.9 9c-1.5 0-3-.4-4.4-1.1l-4.6 1.1zM8.7 19l.3.1c1.2.7 2.5 1.1 3.9 1.1 4.1 0 7.4-3.3 7.4-7.4 0-4.1-3.3-7.4-7.4-7.4-4.1 0-7.4 3.3-7.4 7.4 0 1.4.4 2.8 1.2 4l.2.3-.9 2.6 2.7-.7z" fill="#fff"/><path d="M10.3 8.6h-.6c-.2 0-.4.1-.5.2-.2.2-.7.7-.8 1.3-.2.9.1 2 .9 3.2.8 1.1 2.4 2.9 5.1 3.7.9.2 1.6.1 2.1-.3.4-.3.7-.7.8-1.2l.1-.4c0-.1 0-.3-.2-.3l-2-.9c-.1-.1-.3 0-.4.1l-.8 1h-.1c-.5-.2-2.3-.9-3.3-2.8V12l.7-.9c.1-.1.1-.2.1-.3l-.8-2c-.1-.1-.2-.2-.3-.2z" fill="#fff"/></svg>